<svg xmlns="http://www.w3.org/2000/svg" width="37" height="31.857" viewBox="0 0 37 31.857">
  <g id="_6579012_and_computers_hardware_pc_phone_icon" data-name="6579012_and_computers_hardware_pc_phone_icon" transform="translate(-4 -5.681)">
    <g id="Desktop" transform="translate(4 5.681)">
      <path id="Path_103735" data-name="Path 103735" d="M29.13,4H23.913A3.913,3.913,0,0,0,20,7.913V23.564a3.913,3.913,0,0,0,3.913,3.913H29.13a3.913,3.913,0,0,0,3.913-3.913V7.913A3.913,3.913,0,0,0,29.13,4Zm1.3,19.564a1.3,1.3,0,0,1-1.3,1.3H23.913a1.3,1.3,0,0,1-1.3-1.3V7.913a1.3,1.3,0,0,1,1.3-1.3H29.13a1.3,1.3,0,0,1,1.3,1.3Z" transform="translate(3.957 -4)" fill="#1d477a"/>
      <path id="Path_103736" data-name="Path 103736" d="M5.913,23.26H9.826v1.3H7.217a1.3,1.3,0,0,0,0,2.609H18.955a1.3,1.3,0,1,0,0-2.609H16.347v-1.3H20.26a3.913,3.913,0,0,0,3.913-3.913V8.913A3.913,3.913,0,0,0,20.26,5H5.913A3.913,3.913,0,0,0,2,8.913V19.347A3.913,3.913,0,0,0,5.913,23.26Zm7.826,1.3h-1.3v-1.3h1.3ZM4.609,8.913a1.3,1.3,0,0,1,1.3-1.3H20.26a1.3,1.3,0,0,1,1.3,1.3V19.347a1.3,1.3,0,0,1-1.3,1.3H5.913a1.3,1.3,0,0,1-1.3-1.3Z" transform="translate(-2 -3.696)" fill="#1d477a"/>
      <path id="Path_103737" data-name="Path 103737" d="M24.172,23H4.609A2.609,2.609,0,0,0,2,25.609v1.3a2.609,2.609,0,0,0,2.609,2.609H24.172a2.609,2.609,0,0,0,2.609-2.609v-1.3A2.609,2.609,0,0,0,24.172,23Zm0,3.913H4.609v-1.3H24.172Z" transform="translate(-2 2.336)" fill="#1d477a"/>
      <path id="Path_103738" data-name="Path 103738" d="M27.217,23h-1.3A3.913,3.913,0,0,0,22,26.913a2.609,2.609,0,0,0,2.609,2.609h3.913a2.609,2.609,0,0,0,2.609-2.609A3.913,3.913,0,0,0,27.217,23Zm-2.609,3.913a1.3,1.3,0,0,1,1.3-1.3h1.3a1.3,1.3,0,0,1,1.3,1.3Z" transform="translate(3.566 2.336)" fill="#1d477a"/>
      <path id="Path_103739" data-name="Path 103739" d="M26.913,8H24.3a1.3,1.3,0,1,0,0,2.609h2.609a1.3,1.3,0,0,0,0-2.609Z" transform="translate(3.87 -2.864)" fill="#1d477a"/>
      <circle id="Ellipse_3921" data-name="Ellipse 3921" cx="1.304" cy="1.304" r="1.304" transform="translate(28.174 15.408)" fill="#1d477a"/>
    </g>
  </g>
</svg>
