<svg xmlns="http://www.w3.org/2000/svg" width="36" height="36.003" viewBox="0 0 36 36.003">
  <g id="board_background_frame_school_chalkboard_billboard_chalk_blackboard_backdrop_classroom" data-name="board, background, frame, school, chalkboard, billboard, chalk, blackboard, backdrop, classroom" transform="translate(-2 -2)">
    <path id="Path_103727" data-name="Path 103727" d="M34.143,4.571H21.286V3.286a1.286,1.286,0,0,0-2.571,0V4.571H5.857A3.857,3.857,0,0,0,2,8.429V29a3.857,3.857,0,0,0,3.857,3.857h8.614l-1.993,3.176A1.288,1.288,0,1,0,14.664,37.4l2.829-4.539h5.079L25.4,37.4a1.288,1.288,0,1,0,2.186-1.363l-2.057-3.176h8.614A3.857,3.857,0,0,0,38,29V8.429a3.857,3.857,0,0,0-3.857-3.857ZM4.571,8.429A1.286,1.286,0,0,1,5.857,7.143H34.143a1.286,1.286,0,0,1,1.286,1.286V25.143H32.857V23.857A3.857,3.857,0,0,0,29,20H26.429a3.857,3.857,0,0,0-3.857,3.857v1.286h-18ZM30.286,25.143H25.143V23.857a1.286,1.286,0,0,1,1.286-1.286H29a1.286,1.286,0,0,1,1.286,1.286ZM35.429,29a1.286,1.286,0,0,1-1.286,1.286H5.857A1.286,1.286,0,0,1,4.571,29V27.714H35.429Z" fill="#1d477a"/>
  </g>
</svg>
