<svg xmlns="http://www.w3.org/2000/svg" width="36" height="24.75" viewBox="0 0 36 24.75">
  <g id="_6588799_bricks_construction_wall_icon" data-name="6588799_bricks_construction_wall_icon" transform="translate(0 -6)">
    <path id="Path_103705" data-name="Path 103705" d="M9,19V15a.945.945,0,0,0-1-1H1a.945.945,0,0,0-1,1v4a.945.945,0,0,0,1,1H8A.945.945,0,0,0,9,19Z" transform="translate(0 1.375)" fill="#1d477a"/>
    <path id="Path_103706" data-name="Path 103706" d="M31,14H24a.945.945,0,0,0-1,1v4a.945.945,0,0,0,1,1h7a.945.945,0,0,0,1-1V15A.945.945,0,0,0,31,14Z" transform="translate(4 1.375)" fill="#1d477a"/>
    <path id="Path_103707" data-name="Path 103707" d="M12,14a.945.945,0,0,0-1,1v4a.945.945,0,0,0,1,1h8a.945.945,0,0,0,1-1V15a.945.945,0,0,0-1-1Z" transform="translate(2 1.375)" fill="#1d477a"/>
    <path id="Path_103708" data-name="Path 103708" d="M6,12h8a.945.945,0,0,0,1-1V7a.945.945,0,0,0-1-1H6A.945.945,0,0,0,5,7v4A.945.945,0,0,0,6,12Z" transform="translate(0.909)" fill="#1d477a"/>
    <path id="Path_103709" data-name="Path 103709" d="M18,12h8a.945.945,0,0,0,1-1V7a.945.945,0,0,0-1-1H18a.945.945,0,0,0-1,1v4A.945.945,0,0,0,18,12Z" transform="translate(3.091)" fill="#1d477a"/>
    <path id="Path_103710" data-name="Path 103710" d="M14,22H6a.945.945,0,0,0-1,1v4a.945.945,0,0,0,1,1h8a.945.945,0,0,0,1-1V23A.945.945,0,0,0,14,22Z" transform="translate(0.909 2.75)" fill="#1d477a"/>
    <path id="Path_103711" data-name="Path 103711" d="M26,22H18a.945.945,0,0,0-1,1v4a.945.945,0,0,0,1,1h8a.945.945,0,0,0,1-1V23A.945.945,0,0,0,26,22Z" transform="translate(3.091 2.75)" fill="#1d477a"/>
  </g>
</svg>
