<svg xmlns="http://www.w3.org/2000/svg" width="36" height="35.097" viewBox="0 0 36 35.097">
  <g id="Layer_2" data-name="Layer 2" transform="translate(-1.254 -1)">
    <path id="Path_103743" data-name="Path 103743" d="M17.078,15.44a1.207,1.207,0,0,0-1.207,1.207v1.207H11.044V16.647a1.207,1.207,0,0,0-2.414,0v2.414a1.207,1.207,0,0,0,1.207,1.207h7.241a1.207,1.207,0,0,0,1.207-1.207V16.647a1.207,1.207,0,0,0-1.207-1.207Z" transform="translate(1.56 3.044)" fill="#1d477a"/>
    <path id="Path_103744" data-name="Path 103744" d="M17.078,10.44H9.837A1.207,1.207,0,0,0,8.63,11.647v2.414a1.207,1.207,0,0,0,2.414,0V12.854h4.828v1.207a1.207,1.207,0,0,0,2.414,0V11.647A1.207,1.207,0,0,0,17.078,10.44Z" transform="translate(1.56 1.99)" fill="#1d477a"/>
    <path id="Path_103745" data-name="Path 103745" d="M28.241,11.5a1.207,1.207,0,0,0-1.207,1.207H23.414a1.207,1.207,0,1,0-2.414,0v1.207a1.207,1.207,0,0,0,1.207,1.207h6.034a1.207,1.207,0,0,0,1.207-1.207V12.707A1.207,1.207,0,0,0,28.241,11.5Z" transform="translate(4.185 2.212)" fill="#1d477a"/>
    <path id="Path_103746" data-name="Path 103746" d="M28.241,6.5H22.207A1.207,1.207,0,0,0,21,7.707V8.914a1.207,1.207,0,1,0,2.414,0h3.621a1.207,1.207,0,1,0,2.414,0V7.707A1.207,1.207,0,0,0,28.241,6.5Z" transform="translate(4.185 1.158)" fill="#1d477a"/>
    <path id="Path_103747" data-name="Path 103747" d="M24.358,23H6.387a1.207,1.207,0,1,0,0,2.414H24.358a1.207,1.207,0,0,0,0-2.414Z" transform="translate(0.812 4.631)" fill="#1d477a"/>
    <path id="Path_103748" data-name="Path 103748" d="M34.349,1H24.425a2.9,2.9,0,0,0-2.9,2.9V8.649H5.788A2.771,2.771,0,0,0,3,11.42V25.713L1.382,32.018A3.183,3.183,0,0,0,4.444,36.1H28.02a3.183,3.183,0,0,0,3.062-4.042L29.46,25.737V23.994H34.3a2.9,2.9,0,0,0,2.953-2.9V3.9A2.9,2.9,0,0,0,34.349,1ZM13.9,33.676l.194-.581h4.26l.194.581Zm14.729-.3a.75.75,0,0,1-.605.3h-6.91L20.383,31.5a1.21,1.21,0,0,0-1.15-.823H13.182a1.21,1.21,0,0,0-1.15.823l-.678,2.178H4.444a.75.75,0,0,1-.605-.3.775.775,0,0,1-.109-.714l1.44-5.579H27.318L28.782,32.7A.75.75,0,0,1,28.625,33.374ZM27.039,24.66H5.425V11.42a.351.351,0,0,1,.363-.351H21.521V21.09a2.9,2.9,0,0,0,2.9,2.9h2.614Zm7.794-3.57a.472.472,0,0,1-.484.484H24.425a.472.472,0,0,1-.484-.484V3.9a.472.472,0,0,1,.484-.484h9.924a.472.472,0,0,1,.484.484Z" transform="translate(0 0)" fill="#1d477a"/>
  </g>
</svg>
