<svg xmlns="http://www.w3.org/2000/svg" width="34.56" height="36.555" viewBox="0 0 34.56 36.555">
  <g id="Layer_4" transform="translate(-3.408 15.231)">
    <g id="Group_47332" data-name="Group 47332" transform="translate(3.408 -15.231)">
      <path id="Path_103722" data-name="Path 103722" d="M14.46,27.849A10.053,10.053,0,1,0,24.513,37.9,10.053,10.053,0,0,0,14.46,27.849Zm0,17.591A7.539,7.539,0,0,1,6.921,37.9c0-.137.013-.271.021-.406a22.681,22.681,0,0,1,8.112,7.916C14.858,45.426,14.661,45.44,14.46,45.44Zm3.106-.675A25.175,25.175,0,0,0,7.519,34.957a7.55,7.55,0,0,1,4.6-4.22,25.166,25.166,0,0,0,8.592,11.379A7.555,7.555,0,0,1,17.566,44.765Zm4.19-4.992a22.656,22.656,0,0,1-7.077-9.4,7.5,7.5,0,0,1,7.077,9.4Z" transform="translate(-4.408 -11.399)" fill="#1d477a"/>
      <path id="Path_103723" data-name="Path 103723" d="M29.655,18.4h-.006a8.373,8.373,0,0,0,2.064-9.429l.014-.006L29.982,5.216l-.019.008c-.045-.113-.085-.228-.137-.34a8.371,8.371,0,1,0-15.173,7.076c.052.112.114.216.171.325l-.016.008,1.747,3.746.014-.007A8.373,8.373,0,0,0,25.2,20.5l2.7,1.908,1.423-.664Z" transform="translate(-0.34 -0.048)" fill="#1d477a"/>
      <path id="Path_103724" data-name="Path 103724" d="M36.971,33.762l-1.727.789,4.807,10.308,1.721-.8Z" transform="translate(-7.212 -10.399)" fill="#1d477a"/>
    </g>
  </g>
</svg>
