<svg xmlns="http://www.w3.org/2000/svg" width="35.009" height="33.789" viewBox="0 0 35.009 33.789">
  <g id="_6602703_health_healthcare_medical_icon" data-name="6602703_health_healthcare_medical_icon" transform="translate(-2.907 -6.472)">
    <path id="Path_103725" data-name="Path 103725" d="M36.876,17.487A1.426,1.426,0,0,0,35.752,17a9.58,9.58,0,0,0-7,2.725l-1.125,1.168a8.45,8.45,0,0,1-5.623,1.947H18.257c-.75,0-1.25-.389-1.25-.973s.5-.973,1.25-.973h2.374c2,0,3.874-1.265,3.874-2.823v-.1c0-.487-.625-.973-1.25-.973H15.633c-4.5,0-8.122,1.557-10.122,4.088L2.137,25.176a.726.726,0,0,0,0,.973l3.749,4.867a1.8,1.8,0,0,0,.75.487h.25a2.139,2.139,0,0,0,.75-.195,34.936,34.936,0,0,1,15.87-3.7c4.124,0,7.872-1.752,9.872-4.575l3.374-4.672A.75.75,0,0,0,36.876,17.487Z" transform="translate(0.957 8.758)" fill="#1d477a"/>
    <path id="Path_103726" data-name="Path 103726" d="M13.338,16.251h6.645a3.256,3.256,0,0,1,3.268,3.159v.218h0L30,12.656a6.973,6.973,0,0,0,0-9.7A6.987,6.987,0,0,0,25.321,1a6.874,6.874,0,0,0-4.793,2.07l-.545.545-.545-.545A6.682,6.682,0,0,0,14.645,1,6.628,6.628,0,0,0,9.961,3.07a6.973,6.973,0,0,0,0,9.7Zm1.2-6.536h1.743l1.852-1.852a1.332,1.332,0,0,1,.98-.327,1.389,1.389,0,0,1,.763.545l1.089,2.179L22.271,7.1a.949.949,0,0,1,.871-.654,1.062,1.062,0,0,1,.98.436L26.3,10.151a1.1,1.1,0,1,1-1.852,1.2l-.98-1.525L22.053,13.31a1.046,1.046,0,0,1-.98.763h0a1.047,1.047,0,0,1-.98-.654l-1.525-3.05-1.089,1.089a.822.822,0,0,1-.763.436H14.536A1.029,1.029,0,0,1,13.447,10.8,1.029,1.029,0,0,1,14.536,9.715Z" transform="translate(5.95 5.472)" fill="#1d477a"/>
  </g>
</svg>
