<svg xmlns="http://www.w3.org/2000/svg" width="41.212" height="36.402" viewBox="0 0 41.212 36.402">
  <g id="_9214696521655985683" data-name="9214696521655985683" transform="translate(-3.733 -5.99)">
    <path id="Path_103749" data-name="Path 103749" d="M27.1,16.708a1.128,1.128,0,1,0-1.128-1.128A1.128,1.128,0,0,0,27.1,16.708Z" transform="translate(-12.715 -4.428)" fill="#1d477a" stroke="#1d477a" stroke-width="2.2"/>
    <path id="Path_103750" data-name="Path 103750" d="M70.886,25.62,63.434,8.358A.6.6,0,0,0,62.886,8h0a.6.6,0,0,0-.549.362L54.929,25.6a.6.6,0,0,0,.548.834l6.468.008.044,0h.267v4.7l-1.472,0h0a.6.6,0,0,0-.6.6l-.013,9.485a.6.6,0,0,0,.6.6L65,41.838h0a.6.6,0,0,0,.6-.6l.01-9.487a.6.6,0,0,0-.6-.6l-1.563,0v-4.7l6.886.007h0a.6.6,0,0,0,.548-.835ZM64.406,40.64l-3.037-.005.011-8.29,3.034,0Zm-.955-15.388V18.467a.6.6,0,1,0-1.2,0v6.784h-.174l-.044,0-5.653-.007,6.5-15.136,6.541,15.152Z" transform="translate(-27.103 -0.546)" fill="#1d477a" stroke="#1d477a" stroke-width="2.2"/>
    <path id="Path_103751" data-name="Path 103751" d="M23.34,22.157H19.033A2.164,2.164,0,0,1,16.871,20a27.157,27.157,0,0,1,.943-4.672c.373-1.483.726-2.884.856-3.864a3.556,3.556,0,0,0-.9-2.841,4.522,4.522,0,0,0-6.78,0A3.551,3.551,0,0,0,10.1,11.46a37.973,37.973,0,0,0,.9,3.915A25.828,25.828,0,0,1,11.979,20a2.164,2.164,0,0,1-2.162,2.162H5.434a.6.6,0,0,0-.6.6v5.163c0,.01,0,.019,0,.029s0,.019,0,.029V40.592a.6.6,0,0,0,.6.6H23.339a.6.6,0,0,0,.6-.6V22.756A.6.6,0,0,0,23.34,22.157Zm-13.522,1.2A3.361,3.361,0,0,0,13.175,20a25.322,25.322,0,0,0-1.014-4.924,38.245,38.245,0,0,1-.874-3.772A2.372,2.372,0,0,1,11.9,9.406a3.327,3.327,0,0,1,4.98,0,2.378,2.378,0,0,1,.611,1.895c-.122.913-.482,2.346-.831,3.731A26.593,26.593,0,0,0,15.676,20a3.361,3.361,0,0,0,3.358,3.357h3.709v4H6.032v-4H9.818ZM6.032,39.994V28.544h16.71V39.994Z" transform="translate(0 0)" fill="#1d477a" stroke="#1d477a" stroke-width="2.2"/>
  </g>
</svg>
