<svg xmlns="http://www.w3.org/2000/svg" width="36" height="41.538" viewBox="0 0 36 41.538">
  <g id="_10407468911638280238" data-name="10407468911638280238" transform="translate(-10 -2)">
    <path id="Path_103752" data-name="Path 103752" d="M35.172,40H20.66a.66.66,0,0,0-.66.66v7.916a.66.66,0,0,0,.66.66H35.172a.66.66,0,0,0,.66-.66V40.66a.66.66,0,0,0-.66-.66Zm-.66,7.916H21.319v-6.6H34.512Z" transform="translate(-6.011 -13.474)" fill="#1d477a"/>
    <path id="Path_103753" data-name="Path 103753" d="M42.538,25.538H39.077V24.154h.692a.692.692,0,0,0,.692-.692V19.308a.692.692,0,0,0-.692-.692H38.385V10.308a.692.692,0,0,1,.692.692v4.154a.692.692,0,0,0,1.385,0V11a2.083,2.083,0,0,0-2.077-2.077h-.692V8.231a.692.692,0,0,0,.692-.692V4.077A2.083,2.083,0,0,0,36.308,2H34.923a2.083,2.083,0,0,0-2.077,2.077V7.538a.692.692,0,0,0,.692.692v.692a.692.692,0,0,0-.692.692v9H31.462V4.077a.692.692,0,0,0-.692-.692H26.615a.692.692,0,0,0-.692.692V18.615H24.538V4.769a2.769,2.769,0,0,0-5.538,0V18.615H17.615V6.846a.692.692,0,0,0-.076-.312L15.462,2.381a.719.719,0,0,0-1.232,0L12.153,6.535a.692.692,0,0,0-.076.312V18.615H10.692a.692.692,0,0,0-.692.692v4.154a.692.692,0,0,0,.692.692h.692V41.462a2.083,2.083,0,0,0,2.077,2.077H37a2.083,2.083,0,0,0,2.077-2.077V39.385h3.462A3.462,3.462,0,0,0,46,35.923V29a3.462,3.462,0,0,0-3.462-3.462ZM34.231,4.077a.692.692,0,0,1,.692-.692h1.385A.692.692,0,0,1,37,4.077V6.846H34.231Zm2.077,4.154v.692H34.923V8.231Zm-2.077,2.077H37v8.308H34.231ZM27.308,4.769h2.769V8.231H27.308Zm0,4.846h2.769V11H27.308Zm0,2.769h2.769v6.231H27.308Zm-5.538-9a1.389,1.389,0,0,1,1.385,1.385H20.385a1.389,1.389,0,0,1,1.385-1.385ZM20.385,6.154h2.769V7.538H20.385Zm2.769,2.769v9.692h-.692V8.923Zm-2.769,0h.692v9.692h-.692Zm-5.538-4.68L16.03,6.611,14.846,7.4l-1.184-.789Zm1.385,3.9V18.615h-.692V8.6Zm-2.769,0,.692.464V18.615h-.692ZM37.692,41.462a.692.692,0,0,1-.692.692H13.462a.692.692,0,0,1-.692-.692V24.154H37.692ZM11.385,22.769V20H39.077v2.769Zm27.692,6.923h2.769v5.538H39.077Zm5.538,6.231A2.083,2.083,0,0,1,42.538,38H39.077V36.615h3.462a.692.692,0,0,0,.692-.692V29a.692.692,0,0,0-.692-.692H39.077V26.923h3.462A2.083,2.083,0,0,1,44.615,29Z" transform="translate(0)" fill="#1d477a"/>
  </g>
</svg>
