<svg xmlns="http://www.w3.org/2000/svg" width="44.717" height="36" viewBox="0 0 44.717 36">
  <g id="_303281881582967221" data-name="303281881582967221" transform="translate(-1.817 -13.938)">
    <path id="Path_103728" data-name="Path 103728" d="M66.569,40.094a5.412,5.412,0,0,1,.065-.723,2.1,2.1,0,0,1,.067-.3,1.671,1.671,0,0,0,.046-.223,1.185,1.185,0,0,0-.076-.659.429.429,0,0,0-.394-.26.262.262,0,0,0-.1,0,1,1,0,0,0-.452.257c-.033.027-.064.053-.092.073-.129.1-.257.194-.386.293s-.235.181-.354.269l-.034.028c-.113.083-.228.164-.344.244l-.137.1c-.085.06-.17.117-.256.174-.02.014-.045.027-.071.042a.612.612,0,0,0-.2.154.358.358,0,0,0-.037.365.683.683,0,0,0,.49.36.88.88,0,0,0,.542-.141c.068-.039.134-.082.2-.124a2.3,2.3,0,0,1,.3-.174.69.69,0,0,1,.074-.028,4.113,4.113,0,0,1,0,1.219c-.019.2-.037.393-.042.578-.02.6-.031,1.254-.033,2,0,.173,0,.362.007.569,0,.075,0,.15.009.228,0,.128.01.262.016.411l-.019.015-.014.012a1.193,1.193,0,0,1-.324.135L64.95,45c-.059.019-.13.037-.208.056-.365.091-.917.228-.861.729a.688.688,0,0,0,.287.443.518.518,0,0,0,.6.014l.087-.036.074-.03c.046-.019.092-.038.144-.056a5.492,5.492,0,0,1,.534-.19s.013,0,.028.012a.737.737,0,0,1,.127.115.585.585,0,0,0,.188.151.743.743,0,0,0,.326.023,1,1,0,0,0,.478-.171.335.335,0,0,0,.149-.311c0-.037-.014-.086-.026-.144l-.009-.046c-.008-.033-.012-.061-.016-.086l-.008-.048a1.558,1.558,0,0,1,.526-.19l.114-.028a1.584,1.584,0,0,0,.591-.233c.111-.08.105-.254.092-.379a.675.675,0,0,0-.025-.118,1.093,1.093,0,0,0-.171-.352.223.223,0,0,0-.144-.085.516.516,0,0,0-.259.066l-.058.025-.312.115a5.9,5.9,0,0,1-.583.184l-.041.009-.011-.042,0-.017a1.321,1.321,0,0,1-.028-.167.786.786,0,0,1-.006-.083l-.007-.058c0-.027,0-.053-.005-.078s0-.05,0-.074,0-.048,0-.069,0-.042,0-.07,0-.039,0-.054,0-.029,0-.041a16.926,16.926,0,0,1,.057-3.186C66.557,40.364,66.563,40.228,66.569,40.094Z" transform="translate(-39.819 -15.505)" fill="#1d477a"/>
    <path id="Path_103729" data-name="Path 103729" d="M77.622,43.812q-.121.015-.254.038l-.106.018c-.224.039-.455.079-.683.1-.031,0-.07,0-.114,0-.2,0-.477,0-.567.2a.528.528,0,0,0,.067.578.543.543,0,0,0,.532.057,1.329,1.329,0,0,1,.133-.027c.295-.036.583-.068.87-.076.051,0,.1,0,.139-.008h.013l0,.055c.006.162.011.309.013.441v.025a.1.1,0,0,0,0,.02,2.773,2.773,0,0,0,.058.735c.061.218.239.312.531.28h0a.391.391,0,0,0,.282-.125.342.342,0,0,0,.04-.271c-.009-.052-.015-.107-.022-.173l0-.027a6.869,6.869,0,0,1-.047-.9c.007-.051.014-.1.027-.153.038,0,.071-.009.1-.014a.916.916,0,0,0,.148-.017,3.805,3.805,0,0,1,.638-.069c.049,0,.1,0,.15,0a1.286,1.286,0,0,0,.36-.023.35.35,0,0,0,.232-.153.477.477,0,0,0,.006-.364.468.468,0,0,0-.361-.382,2.006,2.006,0,0,0-.773.026,2.792,2.792,0,0,1-.477.051c-.036,0-.07,0-.1,0a5.017,5.017,0,0,1-.082-.512c0-.033,0-.084-.006-.147-.009-.357-.032-.719-.209-.873a.286.286,0,0,0-.226-.069.444.444,0,0,0-.32.173c-.185.249-.1.7-.032,1.059a2.306,2.306,0,0,1,.052.365,1.117,1.117,0,0,1-.012.149Z" transform="translate(-47.57 -18.08)" fill="#1d477a"/>
    <path id="Path_103730" data-name="Path 103730" d="M92.583,39.556c-.1.127-.213.255-.325.379-.146.163-.3.322-.452.473a6.8,6.8,0,0,1-.967.782c-.151.1-.29.191-.418.285a2.49,2.49,0,0,0-.716.8l-.011.021c-.006.011-.012.022-.016.031-.152.316-.244.9.158,1.135a.437.437,0,0,0,.273.061,1.043,1.043,0,0,0,.505-.287,1.7,1.7,0,0,1,.2-.153,4.243,4.243,0,0,1,1.07-.443,5.992,5.992,0,0,1,.9-.18,10.41,10.41,0,0,1,1.377-.06l.1,0a.5.5,0,0,0,.469-.156.831.831,0,0,0,.172-.573l0-.066a.386.386,0,0,0-.133-.283.363.363,0,0,0-.284-.04c-.021,0-.041.006-.062.008l-.177.013-.178.013c-.441.029-.9.058-1.345.108l-.064.007c-.177.019-.328.039-.458.057.159-.123.319-.258.477-.4.028-.024.055-.05.083-.076l.07-.065,0,0c.128-.125.258-.256.381-.388a.845.845,0,0,0,.064-.065l.035-.038a9.729,9.729,0,0,0,.864-1.086c.167-.241.31-.464.44-.681l.07-.119a2.678,2.678,0,0,0,.518-1.459,1.61,1.61,0,0,0-.063-.369,2.733,2.733,0,0,0-1.359-1.551,2.318,2.318,0,0,0-.654-.221,2.678,2.678,0,0,0-1.83.381.423.423,0,0,0-.061.037,5.745,5.745,0,0,0-.72.487l-.019.015-.01.022a.576.576,0,0,0-.029.391.767.767,0,0,0,.237.4.51.51,0,0,0,.449.138l.026-.005.02-.018c.039-.034.082-.069.124-.1a4.257,4.257,0,0,1,.43-.319l.022-.015.027-.017a1.848,1.848,0,0,1,.464-.221,1.028,1.028,0,0,1,.195-.031,1.291,1.291,0,0,1,1.066.491,1.2,1.2,0,0,1,.221,1.087,5.584,5.584,0,0,1-1.151,1.868Z" transform="translate(-56.443 -13.578)" fill="#1d477a"/>
    <path id="Path_103731" data-name="Path 103731" d="M18.68,32.415a2.474,2.474,0,0,0,4.857,0l.378-1.947a2.606,2.606,0,0,0-2.582-2.957h-.449A2.606,2.606,0,0,0,18.3,30.468Z" transform="translate(-10.188 -8.4)" fill="#1d477a"/>
    <path id="Path_103732" data-name="Path 103732" d="M19.7,45.224h.15a1.33,1.33,0,0,0,1.187-.753l2.57-5.305a1.222,1.222,0,0,0-2.163-1.136L19.034,42.3s-5.164-.683-5.58-.736a.63.63,0,0,0-.128,0h0l-.042-.007a.6.6,0,0,0-.238.015l-.064-.02-1.242,1.242-.669.665-.174.178-.044.044-.048-.051v-.015l-.009.009-.009-.009v.015l-.048.051-.218-.222-.669-.665L8.6,41.546l-.064.02A.607.607,0,0,0,8.3,41.55c-.454.059-2.374.454-3.074.6a1.01,1.01,0,0,0-.537.291,1.774,1.774,0,0,0-.262.366l-1.7,3.14-.691,1.277-.077.143a1.259,1.259,0,0,0-.013,1.156l2.317,4.589a1.174,1.174,0,0,0,1.35.606.789.789,0,0,0,.154-.051,1.028,1.028,0,0,0,.22-.123V54.58a4.7,4.7,0,1,0,9.4.11c.058-2.53.117-5.264.176-7.363,0-.066.011-.392.022-.769,0-.026,0-.055,0-.084.018-.568.035-1.209.035-1.222l2.836-.02ZM5.992,51.152,4.73,48.146,5.992,46.47Z" transform="translate(0 -15.715)" fill="#1d477a"/>
    <path id="Path_103733" data-name="Path 103733" d="M73.934,90.077c-1.061-.529-3.391-1.311-3.391-1.311V88l.065-.049a2.225,2.225,0,0,0,.845-1.414l.013-.082h.063a.86.86,0,0,0,.8-.535.936.936,0,0,0,.117-.453.861.861,0,0,0-.061-.319.445.445,0,0,0-.172-.277l-.215-.13.053-.233a2.7,2.7,0,0,0-2.683-3.258h-.254A2.7,2.7,0,0,0,66.426,84.5l.053.233-.215.13a.445.445,0,0,0-.172.277.862.862,0,0,0-.061.319.936.936,0,0,0,.117.454.86.86,0,0,0,.8.535h.063l.013.082a2.225,2.225,0,0,0,.845,1.414L67.93,88v.769s-2.329.782-3.391,1.311l-.01.006-.01-.006c-1.061-.529-3.391-1.311-3.391-1.311V88l.065-.049a2.225,2.225,0,0,0,.845-1.414l.013-.082h.063a.86.86,0,0,0,.8-.535.936.936,0,0,0,.117-.453.861.861,0,0,0-.061-.319.445.445,0,0,0-.172-.277l-.215-.13.053-.233a2.7,2.7,0,0,0-2.683-3.258h-.254A2.7,2.7,0,0,0,57.011,84.5l.053.233-.215.13a.445.445,0,0,0-.173.277.861.861,0,0,0-.061.319.936.936,0,0,0,.117.453.86.86,0,0,0,.8.535h.063l.013.082a2.225,2.225,0,0,0,.845,1.414l.065.049v.769s-2.329.782-3.391,1.311l-.01.006-.01-.006c-1.061-.529-3.391-1.311-3.391-1.311V88l.065-.049a2.225,2.225,0,0,0,.845-1.414l.013-.082H52.7a.86.86,0,0,0,.8-.535.936.936,0,0,0,.117-.453.862.862,0,0,0-.061-.319.445.445,0,0,0-.172-.277l-.215-.13.053-.233a2.7,2.7,0,0,0-2.683-3.258h-.254A2.7,2.7,0,0,0,47.6,84.5l.053.233-.215.13a.445.445,0,0,0-.172.277.861.861,0,0,0-.061.319.936.936,0,0,0,.117.454.86.86,0,0,0,.8.535h.063l.013.082a2.225,2.225,0,0,0,.845,1.414L49.1,88v.769s-2.329.782-3.391,1.311a1.133,1.133,0,0,0-.61.822,24.663,24.663,0,0,0-.214,2.852H74.759a24.667,24.667,0,0,0-.214-2.852,1.133,1.133,0,0,0-.61-.822Z" transform="translate(-29.333 -43.812)" fill="#1d477a"/>
    <path id="Path_103734" data-name="Path 103734" d="M72.524,13.938H43.514a1.541,1.541,0,0,0-1.541,1.541v.288a1.542,1.542,0,0,0,1.541,1.541v9l1.88-3.321a2.291,2.291,0,0,1,.244-.348V18.454H70.4V34.971H45.638V31.543a2.334,2.334,0,0,1-.924.195l-1.2.008v4.061A1.29,1.29,0,0,0,44.805,37.1h26.43a1.289,1.289,0,0,0,1.289-1.289v-18.5a1.542,1.542,0,0,0,1.541-1.541v-.288a1.541,1.541,0,0,0-1.541-1.541Z" transform="translate(-27.532)" fill="#1d477a"/>
  </g>
</svg>
