<svg xmlns="http://www.w3.org/2000/svg" width="36" height="34.104" viewBox="0 0 36 34.104">
  <g id="_3018579_choice_custom_data_general_options_icon" data-name="3018579_choice_custom_data_general_options_icon" transform="translate(-2.051 -0.025)">
    <path id="Path_103700" data-name="Path 103700" d="M9.462,5.672V3.859H27.357v8.125h7.2V26.422h3.491v-17l-8.4-9.4H5.967V17.766h3.5Z" fill="#1d477a"/>
    <path id="Path_103702" data-name="Path 103702" d="M18.079,12.09h1.94V7.932h-1.94a8.3,8.3,0,0,0-1.113-2.519l1.3-1.3-2.359-2.36-1.3,1.3a8.324,8.324,0,0,0-2.5-1.11V0H7.916V1.945A8.276,8.276,0,0,0,5.36,3.085L4.112,1.837,1.752,4.2,3.021,5.465A8.263,8.263,0,0,0,1.944,7.918H0V12.1H1.943a8.291,8.291,0,0,0,1.11,2.507l-1.3,1.3,2.359,2.357,1.3-1.3a8.319,8.319,0,0,0,2.512,1.112V20.02h4.171V18.079A8.317,8.317,0,0,0,14.554,17l1.353,1.352,2.359-2.357-1.332-1.333A8.308,8.308,0,0,0,18.079,12.09ZM10.01,13.442a3.431,3.431,0,1,1,3.431-3.431A3.432,3.432,0,0,1,10.01,13.442Z" transform="matrix(0.996, -0.087, 0.087, 0.996, 2.051, 14.185)" fill="#1d477a"/>
  </g>
</svg>
