<svg width="561" height="315" viewBox="0 0 561 315" fill="none" xmlns="http://www.w3.org/2000/svg">
<path d="M448.01 104.318C408.261 -17.8665 194.677 -23.1829 178.273 113.91C178.273 113.91 165.6 116.417 154.442 114.709C93.5397 105.39 -13.026 222.019 68.7613 311.14H525.493C574.91 226.033 539.414 138.942 448.01 104.318Z" fill="#30AFDD"/>
<path d="M338.257 180.828L337.47 180.064C388.462 127.65 390.478 98.9848 393.544 55.594C394.63 40.2205 395.858 22.8463 399.39 1.86768C375.245 13.0862 355.675 28.6322 341.207 48.0776C329.482 63.8376 321.056 82.1861 316.173 102.612C307.849 137.421 312.766 166.585 312.816 166.874L311.734 167.063C311.684 166.772 306.729 137.419 315.095 102.396C320.011 81.8163 328.495 63.339 340.31 47.4419C355.079 27.5851 375.121 11.7691 399.889 0.434199L400.823 0L400.647 1.02629C396.993 22.4121 395.742 40.0834 394.641 55.6647C391.558 99.3048 389.52 128.128 338.257 180.828Z" fill="#DADADA"/>
<path d="M328.649 169.57L327.585 169.298C327.793 168.511 348.09 90.1451 373.631 46.64L374.58 47.1947C349.114 90.5668 328.852 168.785 328.649 169.57Z" fill="#DADADA"/>
<path d="M356.803 83.468L355.704 83.4285C355.704 83.2727 356.17 67.5418 347.951 52.4009L348.917 51.8753C357.283 67.2904 356.809 83.308 356.803 83.468Z" fill="#DADADA"/>
<path d="M345.084 115.333L344.311 114.554C355.993 102.953 371.256 99.3692 371.408 99.3339L371.653 100.406C371.504 100.439 356.537 103.96 345.084 115.333Z" fill="#DADADA"/>
<path d="M377.036 214.413L376.928 213.318C396.806 211.349 412.931 198.028 426.223 172.599C437.998 150.064 446.088 121.285 453.912 93.4317C458.983 75.3802 463.78 58.3073 469.381 43.5237C412.173 57.8191 388.462 103.167 388.228 103.626L387.249 103.127C387.486 102.662 411.689 56.3378 470.142 42.2045L471.158 41.9594L470.781 42.9358C465.039 57.8938 460.151 75.3013 454.972 93.7287C447.133 121.625 439.029 150.472 427.197 173.108C413.721 198.892 397.313 212.404 377.036 214.413Z" fill="#DADADA"/>
<path d="M372.168 187.416L371.165 186.971C371.497 186.217 404.912 111.385 432.983 89.6257L433.656 90.4941C422.151 99.4128 407.875 118.989 392.37 147.106C380.638 168.384 372.258 187.229 372.168 187.416Z" fill="#DADADA"/>
<path d="M409.094 118.779L408.014 118.572C408.03 118.488 409.58 110.014 410.96 89.5405L412.057 89.6153C410.671 110.174 409.111 118.696 409.094 118.779Z" fill="#DADADA"/>
<path d="M390.359 150.652L389.736 149.749C389.887 149.643 405.153 139.232 425.195 134.664L425.438 135.736C405.6 140.259 390.509 150.551 390.359 150.652Z" fill="#DADADA"/>
<path d="M124.191 286.241C74.8213 235.487 72.8602 207.726 69.8893 165.706C68.8298 150.692 67.6269 133.677 64.1056 113.083L63.931 112.057L64.8763 112.491C118.891 137.213 139.089 179.542 146.522 210.692C154.581 244.423 149.809 272.693 149.759 272.974L148.677 272.785C148.727 272.506 153.455 244.425 145.444 210.908C138.098 180.192 118.229 138.522 65.3541 113.926C68.7509 134.111 69.9246 150.839 70.9779 165.627C73.9322 207.408 75.8809 235.016 124.97 285.476L124.191 286.241Z" fill="#DADADA"/>
<path d="M133.44 275.392C133.245 274.636 113.731 199.312 89.2102 157.552L90.1596 156.993C114.757 198.89 134.309 274.36 134.504 275.118L133.44 275.392Z" fill="#DADADA"/>
<path d="M106.337 192.47C106.337 192.317 105.876 176.889 113.935 162.037L114.901 162.561C106.989 177.136 107.422 192.269 107.436 192.431L106.337 192.47Z" fill="#DADADA"/>
<path d="M117.618 223.17C106.595 212.223 92.1872 208.835 92.0439 208.8L92.2869 207.73C92.4345 207.763 107.139 211.214 118.393 222.391L117.618 223.17Z" fill="#DADADA"/>
<path d="M90.2593 305.52C47.8429 301.573 30.8634 254.555 15.8846 213.071C10.8217 199.048 6.03931 185.804 0.490291 174.405L0 173.399L1.09692 173.628C29.7478 179.588 49.5028 192.088 61.0205 201.524C73.5208 211.76 79.3254 220.725 79.3815 220.814L78.457 221.406C78.2305 221.057 55.5504 186.485 1.96532 174.926C7.33152 186.145 11.9914 199.05 16.9234 212.689C31.7921 253.867 48.6469 300.536 90.3653 304.417L90.2593 305.52Z" fill="#DADADA"/>
<path d="M94.4828 285.092C94.1629 284.519 62.1257 227.624 35.8245 210.937L36.4124 210.009C62.9484 226.837 95.1206 283.98 95.4427 284.554L94.4828 285.092Z" fill="#DADADA"/>
<path d="M59.0967 232.589C59.0821 232.525 57.5157 226.035 55.97 210.428L57.0649 210.32C58.6002 225.831 60.1479 232.265 60.1645 232.327L59.0967 232.589Z" fill="#DADADA"/>
<path d="M77.0443 257.048C76.903 256.967 62.6472 248.981 44.0369 245.316L44.2446 244.238C63.0377 247.94 77.439 256.009 77.5823 256.08L77.0443 257.048Z" fill="#DADADA"/>
<path d="M484.593 310.39L484.331 309.324C531.031 297.918 539.836 247.755 548.351 199.243C551.341 182.208 554.43 164.619 559.154 149.383C512.666 158.306 486.334 190.393 472.404 215.84C457.19 243.633 453.071 269.718 453.031 269.978L451.945 269.814C451.986 269.552 456.127 243.303 471.423 215.344C485.55 189.512 512.369 156.885 559.85 148.141L560.75 147.974L560.474 148.847C555.616 164.206 552.473 182.114 549.434 199.434C540.858 248.293 531.991 298.816 484.593 310.39Z" fill="#DADADA"/>
<path d="M480.596 282.892L479.536 282.599C479.706 281.976 496.925 220.764 524.927 196.59L525.646 197.421C497.895 221.379 480.766 282.279 480.596 282.892Z" fill="#DADADA"/>
<path d="M500.386 231.563L499.31 231.341C499.337 231.216 501.851 218.743 500.972 200.429L502.071 200.375C502.956 218.838 500.413 231.434 500.386 231.563Z" fill="#DADADA"/>
<path d="M485.579 258.207L484.904 257.339C485.056 257.222 500.423 245.355 521.653 237.81L522.021 238.849C500.957 246.332 485.731 258.089 485.579 258.207Z" fill="#DADADA"/>
<path d="M376.845 85.6327C376.138 85.6331 375.447 85.4239 374.859 85.0315C374.271 84.6391 373.813 84.0812 373.542 83.4283C373.271 82.7754 373.2 82.0568 373.338 81.3636C373.476 80.6703 373.816 80.0334 374.315 79.5334C374.815 79.0335 375.452 78.6929 376.145 78.5549C376.838 78.4169 377.557 78.4875 378.21 78.7579C378.863 79.0283 379.421 79.4863 379.814 80.074C380.207 80.6616 380.416 81.3526 380.416 82.0594C380.415 83.0064 380.039 83.9143 379.369 84.5842C378.7 85.254 377.792 85.6311 376.845 85.6327ZM376.845 79.5872C376.356 79.5876 375.877 79.733 375.471 80.0052C375.064 80.2773 374.747 80.6639 374.56 81.116C374.373 81.5682 374.325 82.0656 374.42 82.5455C374.516 83.0253 374.752 83.466 375.098 83.8118C375.444 84.1576 375.885 84.3931 376.365 84.4884C376.845 84.5837 377.342 84.5346 377.794 84.3472C378.246 84.1599 378.633 83.8428 378.904 83.4359C379.176 83.0291 379.321 82.5508 379.321 82.0615C379.321 81.4051 379.06 80.7757 378.595 80.3117C378.131 79.8478 377.501 79.5872 376.845 79.5872Z" fill="#DADADA"/>
<path d="M80.6488 140.855C79.9418 140.855 79.2507 140.646 78.6627 140.254C78.0748 139.861 77.6165 139.303 77.3458 138.65C77.0751 137.997 77.0041 137.278 77.1419 136.585C77.2797 135.892 77.6201 135.255 78.12 134.755C78.6198 134.255 79.2567 133.915 79.9501 133.777C80.6434 133.639 81.3621 133.71 82.0151 133.981C82.6681 134.251 83.2262 134.71 83.6186 135.298C84.0111 135.886 84.2204 136.577 84.22 137.284C84.2183 138.23 83.8416 139.138 83.1722 139.807C82.5028 140.476 81.5954 140.853 80.6488 140.855ZM80.6488 134.809C80.1593 134.809 79.6807 134.954 79.2735 135.225C78.8664 135.497 78.5489 135.883 78.3613 136.335C78.1737 136.787 78.1244 137.285 78.2197 137.765C78.3149 138.245 78.5504 138.686 78.8963 139.033C79.2423 139.379 79.6832 139.615 80.1632 139.71C80.6432 139.806 81.1408 139.757 81.5931 139.57C82.0453 139.383 82.4319 139.065 82.7038 138.659C82.9758 138.252 83.121 137.773 83.121 137.284C83.1182 136.629 82.8567 136.003 82.3935 135.541C81.9303 135.079 81.303 134.819 80.6488 134.818V134.809Z" fill="#DADADA"/>
<path d="M412.015 220.459C411.309 220.459 410.618 220.249 410.031 219.857C409.444 219.464 408.986 218.907 408.716 218.254C408.445 217.602 408.375 216.883 408.512 216.191C408.65 215.498 408.99 214.862 409.49 214.362C409.989 213.863 410.626 213.523 411.318 213.385C412.011 213.247 412.729 213.318 413.382 213.588C414.034 213.858 414.592 214.316 414.984 214.903C415.377 215.491 415.586 216.181 415.586 216.887C415.585 217.834 415.209 218.742 414.539 219.411C413.87 220.081 412.962 220.458 412.015 220.459ZM412.015 214.415C411.526 214.415 411.047 214.56 410.64 214.832C410.233 215.104 409.916 215.491 409.729 215.943C409.542 216.395 409.493 216.893 409.588 217.373C409.684 217.853 409.92 218.294 410.266 218.64C410.612 218.986 411.053 219.221 411.534 219.317C412.014 219.412 412.511 219.362 412.963 219.175C413.415 218.987 413.802 218.67 414.073 218.263C414.345 217.855 414.49 217.377 414.489 216.887C414.488 216.232 414.227 215.603 413.763 215.14C413.299 214.676 412.671 214.416 412.015 214.415Z" fill="#DADADA"/>
<path d="M533.553 182.355C532.847 182.355 532.156 182.146 531.569 181.753C530.982 181.361 530.524 180.803 530.254 180.151C529.984 179.498 529.913 178.78 530.051 178.087C530.188 177.394 530.529 176.758 531.028 176.259C531.527 175.759 532.164 175.419 532.857 175.281C533.549 175.144 534.267 175.214 534.92 175.485C535.572 175.755 536.13 176.213 536.523 176.8C536.915 177.387 537.124 178.078 537.124 178.784C537.123 179.731 536.747 180.638 536.077 181.308C535.408 181.977 534.5 182.354 533.553 182.355ZM533.553 176.31C533.064 176.309 532.585 176.454 532.178 176.726C531.771 176.997 531.453 177.384 531.266 177.836C531.078 178.288 531.029 178.785 531.124 179.265C531.219 179.745 531.455 180.187 531.801 180.533C532.147 180.879 532.588 181.115 533.068 181.211C533.548 181.306 534.045 181.257 534.498 181.07C534.95 180.883 535.336 180.566 535.608 180.159C535.88 179.752 536.025 179.273 536.025 178.784C536.024 178.128 535.764 177.5 535.3 177.036C534.837 176.573 534.209 176.311 533.553 176.31Z" fill="#DADADA"/>
<path d="M400.2 172.188C401.566 172.188 402.673 171.081 402.673 169.716C402.673 168.35 401.566 167.243 400.2 167.243C398.835 167.243 397.728 168.35 397.728 169.716C397.728 171.081 398.835 172.188 400.2 172.188Z" fill="#DADADA"/>
<path d="M514.045 263.234C515.411 263.234 516.518 262.128 516.518 260.762C516.518 259.397 515.411 258.29 514.045 258.29C512.68 258.29 511.573 259.397 511.573 260.762C511.573 262.128 512.68 263.234 514.045 263.234Z" fill="#DADADA"/>
<path d="M334.525 99.0979C334.527 97.7325 333.422 96.6241 332.056 96.6222C330.691 96.6203 329.583 97.7256 329.581 99.091C329.579 100.456 330.684 101.565 332.049 101.567C333.415 101.569 334.523 100.463 334.525 99.0979Z" fill="#DADADA"/>
<path d="M59.0344 271.295C60.3998 271.295 61.5066 270.188 61.5066 268.823C61.5066 267.458 60.3998 266.351 59.0344 266.351C57.669 266.351 56.5621 267.458 56.5621 268.823C56.5621 270.188 57.669 271.295 59.0344 271.295Z" fill="#DADADA"/>
<path d="M129.456 100.551C129.133 100.551 128.812 100.504 128.502 100.412L121.665 98.3699C121.245 98.2456 120.855 98.0398 120.515 97.7641C120.175 97.4885 119.893 97.1485 119.685 96.7636C119.477 96.3787 119.347 95.9566 119.302 95.5214C119.258 95.0861 119.3 94.6464 119.425 94.2274L121.754 86.4928C118.867 84.9602 116.209 83.0293 113.86 80.7568L107.195 85.2546C106.463 85.7483 105.565 85.932 104.698 85.7653C103.831 85.5987 103.065 85.0953 102.568 84.3654L98.5714 78.4757C98.3267 78.1141 98.1557 77.7078 98.0681 77.2801C97.9805 76.8524 97.978 76.4117 98.0608 75.983C98.1435 75.5543 98.3099 75.1461 98.5505 74.7818C98.791 74.4174 99.1009 74.104 99.4626 73.8595L106.05 69.4136C104.652 66.1173 103.774 62.6234 103.449 59.0573L95.64 58.1702C95.2058 58.1211 94.7855 57.9869 94.4033 57.7753C94.021 57.5637 93.6841 57.2788 93.4121 56.9369C93.14 56.5949 92.938 56.2027 92.8177 55.7827C92.6973 55.3626 92.661 54.9229 92.7107 54.4888L93.5272 47.4253C93.6298 46.5483 94.0761 45.7478 94.7682 45.1994C95.4603 44.651 96.3416 44.3996 97.2189 44.5002L104.933 45.3852C105.967 42.1481 107.472 39.0813 109.401 36.2836L104.075 30.7471C103.772 30.4323 103.534 30.061 103.375 29.6543C103.216 29.2477 103.139 28.8136 103.147 28.377C103.156 27.9404 103.251 27.5098 103.426 27.1098C103.601 26.7098 103.853 26.3482 104.168 26.0457L109.314 21.1158C109.952 20.5052 110.805 20.1721 111.688 20.1892C112.57 20.2064 113.41 20.5724 114.024 21.2072L119.305 26.6814C122.291 24.7651 125.555 23.3203 128.982 22.3976L128.49 14.8521C128.461 14.4154 128.52 13.9774 128.661 13.5633C128.803 13.1493 129.025 12.7672 129.314 12.439C129.604 12.1109 129.955 11.8432 130.348 11.6512C130.742 11.4592 131.169 11.3468 131.606 11.3203L138.725 10.8571C139.162 10.826 139.601 10.8816 140.016 11.0207C140.432 11.1597 140.815 11.3795 141.146 11.6673C141.476 11.9552 141.746 12.3054 141.94 12.698C142.134 13.0905 142.249 13.5176 142.278 13.9546L142.77 21.5022C146.289 21.9723 149.714 22.9813 152.925 24.4938L157.444 18.3797C157.97 17.671 158.756 17.1994 159.629 17.0678C160.502 16.9362 161.392 17.1554 162.104 17.6775L167.846 21.9011C168.555 22.4243 169.027 23.2079 169.159 24.0794C169.291 24.9509 169.071 25.839 168.548 26.5485L163.977 32.7166C166.252 35.2418 168.142 38.088 169.587 41.1637L177.12 39.294C177.976 39.0813 178.882 39.2165 179.64 39.6701C180.397 40.1236 180.944 40.8586 181.161 41.7142L182.891 48.6136C182.997 49.0378 183.018 49.4785 182.953 49.9108C182.888 50.343 182.738 50.7582 182.513 51.1325C182.287 51.5069 181.99 51.8331 181.638 52.0924C181.286 52.3518 180.887 52.5392 180.462 52.644L172.83 54.5449C172.973 58.1236 172.556 61.7027 171.594 65.1527L178.701 68.7073C179.091 68.9026 179.439 69.1729 179.725 69.5028C180.011 69.8326 180.229 70.2156 180.367 70.6298C180.505 71.044 180.56 71.4813 180.529 71.9168C180.498 72.3522 180.382 72.7773 180.186 73.1677L176.987 79.5269C176.588 80.3142 175.895 80.9119 175.057 81.1895C174.219 81.467 173.306 81.4018 172.516 81.0082L165.322 77.412C163.286 79.9712 160.901 82.2309 158.235 84.1244L161.559 91.4913C161.738 91.8901 161.837 92.3202 161.849 92.7571C161.861 93.194 161.788 93.6291 161.632 94.0374C161.476 94.4458 161.241 94.8193 160.94 95.1367C160.64 95.4542 160.28 95.7092 159.881 95.8873L153.37 98.7958C152.565 99.1561 151.651 99.1835 150.826 98.8722C150.001 98.5608 149.333 97.9359 148.967 97.1338L145.643 89.7275C142.154 90.4976 138.567 90.7316 135.007 90.4214L132.665 98.1954C132.455 98.8809 132.029 99.4802 131.45 99.9046C130.872 100.329 130.173 100.556 129.456 100.551ZM113.997 79.342L114.317 79.6599C116.774 82.099 119.591 84.1458 122.67 85.7283L123.086 85.936L120.493 94.5452C120.41 94.8254 120.382 95.1193 120.412 95.4102C120.442 95.7011 120.529 95.9831 120.668 96.2403C120.807 96.4975 120.996 96.7248 121.223 96.9091C121.45 97.0934 121.711 97.2312 121.991 97.3145L128.826 99.3567C129.393 99.5262 130.004 99.4642 130.525 99.1842C131.047 98.9043 131.436 98.4292 131.608 97.863L134.207 89.2247L134.658 89.2704C138.39 89.6455 142.158 89.3998 145.81 88.5433L146.25 88.4394L149.965 96.6684C150.209 97.207 150.656 97.6271 151.209 97.8369C151.761 98.0467 152.375 98.0292 152.915 97.7882L159.426 94.8797C159.693 94.7609 159.934 94.5906 160.135 94.3784C160.336 94.1663 160.494 93.9164 160.598 93.6433C160.703 93.3702 160.752 93.0791 160.744 92.7868C160.735 92.4945 160.669 92.2067 160.55 91.94L156.864 83.7401L157.24 83.4804C160.089 81.5133 162.617 79.1189 164.736 76.3816L165.01 76.0243L173.01 80.0235C173.54 80.2888 174.153 80.3332 174.716 80.147C175.278 79.9609 175.744 79.5593 176.01 79.0304L179.208 72.6712C179.34 72.4102 179.419 72.1258 179.441 71.8341C179.462 71.5425 179.426 71.2494 179.334 70.9718C179.243 70.6942 179.097 70.4374 178.905 70.2164C178.714 69.9953 178.48 69.8143 178.219 69.6837L170.283 65.7198L170.411 65.2794C171.472 61.6678 171.911 57.9026 171.712 54.144L171.689 53.6911L180.207 51.572C180.491 51.502 180.759 51.3765 180.995 51.2028C181.231 51.029 181.43 50.8104 181.581 50.5595C181.732 50.3085 181.832 50.0302 181.876 49.7405C181.919 49.4508 181.905 49.1554 181.834 48.8713L180.099 41.9656C179.954 41.3939 179.588 40.9028 179.082 40.5996C178.576 40.2963 177.971 40.2056 177.398 40.3473L168.978 42.4435L168.791 42.028C167.308 38.7616 165.311 35.754 162.876 33.1196L162.567 32.7851L167.671 25.8899C167.846 25.6546 167.972 25.3871 168.043 25.1029C168.113 24.8187 168.127 24.5233 168.083 24.2337C168.039 23.9442 167.939 23.6661 167.787 23.4155C167.636 23.1649 167.436 22.9468 167.2 22.7736L161.449 18.5625C160.973 18.2144 160.378 18.0685 159.794 18.1564C159.211 18.2443 158.686 18.559 158.333 19.032L153.266 25.8878L152.85 25.6801C149.493 24.0453 145.886 22.9829 142.178 22.5368L141.725 22.4828L141.175 14.0273C141.135 13.4374 140.863 12.8872 140.418 12.4976C139.974 12.1081 139.392 11.9111 138.802 11.9498L131.683 12.4152C131.094 12.4547 130.545 12.7259 130.155 13.1693C129.766 13.6128 129.568 14.1925 129.605 14.7815L130.156 23.2348L129.713 23.347C126.092 24.2689 122.652 25.7906 119.533 27.849L119.151 28.1004L113.239 21.9696C112.827 21.5441 112.264 21.2987 111.673 21.287C111.081 21.2754 110.509 21.4984 110.081 21.9073L104.935 26.8393C104.724 27.0416 104.555 27.2835 104.438 27.5512C104.321 27.8188 104.257 28.1069 104.252 28.3991C104.246 28.6912 104.298 28.9816 104.404 29.2537C104.511 29.5257 104.67 29.7741 104.872 29.9847L110.829 36.1611L110.567 36.533C108.492 39.4594 106.9 42.7 105.853 46.131L105.72 46.5694L97.1005 45.5805C96.8094 45.5457 96.5143 45.5689 96.2322 45.6485C95.9501 45.7282 95.6865 45.8628 95.4566 46.0447C95.2266 46.2265 95.0349 46.452 94.8924 46.7082C94.7499 46.9644 94.6594 47.2462 94.6262 47.5375L93.8076 54.601C93.7747 54.8916 93.7994 55.1858 93.8802 55.4669C93.9611 55.7479 94.0966 56.0103 94.2789 56.2389C94.4612 56.4676 94.6869 56.658 94.9429 56.7994C95.1989 56.9408 95.4803 57.0303 95.7709 57.0629L104.467 58.0663L104.503 58.5171C104.8 62.2692 105.727 65.9445 107.245 69.3887L107.43 69.8042L100.084 74.7715C99.841 74.9342 99.6327 75.1432 99.4709 75.3866C99.3091 75.6301 99.197 75.903 99.141 76.1899C99.085 76.4768 99.0863 76.7719 99.1447 77.0583C99.2031 77.3446 99.3175 77.6167 99.4813 77.8587L103.481 83.7484C103.813 84.2394 104.327 84.5783 104.91 84.6905C105.492 84.8026 106.095 84.679 106.586 84.3467L113.997 79.342ZM138.079 76.0679C127.646 76.0679 118.837 67.9656 118.152 57.4347C117.439 46.4676 125.807 36.9609 136.806 36.2442C142.083 35.9006 147.28 37.6674 151.254 41.1557C155.228 44.6441 157.654 49.5683 157.997 54.8451C158.341 60.1219 156.574 65.3191 153.086 69.2933C149.597 73.2675 144.673 75.6932 139.396 76.0367C138.955 76.0575 138.516 76.0679 138.079 76.0679ZM138.135 37.2995C137.72 37.2995 137.304 37.3134 136.889 37.3411C126.501 38.0184 118.584 46.9994 119.259 57.362C119.934 67.7246 128.949 75.6046 139.334 74.9294C144.223 74.6297 148.803 72.4371 152.102 68.8168C155.401 65.1965 157.16 60.4333 157.005 55.5377C156.85 50.6421 154.795 45.9993 151.274 42.5944C147.753 39.1894 143.044 37.2902 138.146 37.2995H138.135Z" fill="#DADADA"/>
<path d="M306.166 51.1337H142.677C137.019 51.1337 132.433 55.7201 132.433 61.3778V300.345C132.433 306.003 137.019 310.589 142.677 310.589H306.166C311.824 310.589 316.41 306.003 316.41 300.345V61.3778C316.41 55.7201 311.824 51.1337 306.166 51.1337Z" fill="#86A7FF"/>
<path d="M256.846 62.5496H192.001V73.4357H256.846V62.5496Z" fill="#D3DFFF"/>
<path d="M298.06 90.0287H150.785V122.691H298.06V90.0287Z" fill="#DADADA"/>
<path d="M291.615 94.4954H157.23V118.223H291.615V94.4954Z" fill="white"/>
<path d="M259.649 137.84H249.643C246.64 137.84 244.205 140.276 244.205 143.279V145.592C244.205 148.595 246.64 151.031 249.643 151.031H259.649C262.653 151.031 265.088 148.595 265.088 145.592V143.279C265.088 140.276 262.653 137.84 259.649 137.84Z" fill="#1F3C88"/>
<path d="M292.621 137.84H282.616C279.612 137.84 277.177 140.276 277.177 143.279V145.592C277.177 148.595 279.612 151.031 282.616 151.031H292.621C295.625 151.031 298.06 148.595 298.06 145.592V143.279C298.06 140.276 295.625 137.84 292.621 137.84Z" fill="#1F3C88"/>
<path d="M295.465 166.969H275.369C273.938 166.969 272.779 168.129 272.779 169.56V181.599C272.779 183.03 273.938 184.19 275.369 184.19H295.465C296.896 184.19 298.056 183.03 298.056 181.599V169.56C298.056 168.129 296.896 166.969 295.465 166.969Z" fill="#1F3C88"/>
<path d="M255.136 166.969H235.041C233.61 166.969 232.45 168.129 232.45 169.56V181.599C232.45 183.03 233.61 184.19 235.041 184.19H255.136C256.567 184.19 257.727 183.03 257.727 181.599V169.56C257.727 168.129 256.567 166.969 255.136 166.969Z" fill="#1F3C88"/>
<path d="M214.81 166.969H194.714C193.283 166.969 192.124 168.129 192.124 169.56V181.599C192.124 183.03 193.283 184.19 194.714 184.19H214.81C216.241 184.19 217.401 183.03 217.401 181.599V169.56C217.401 168.129 216.241 166.969 214.81 166.969Z" fill="#1F3C88"/>
<path d="M174.481 166.969H154.386C152.955 166.969 151.795 168.129 151.795 169.56V181.599C151.795 183.03 152.955 184.19 154.386 184.19H174.481C175.912 184.19 177.072 183.03 177.072 181.599V169.56C177.072 168.129 175.912 166.969 174.481 166.969Z" fill="#1F3C88"/>
<path d="M295.465 198.111H275.369C273.938 198.111 272.779 199.271 272.779 200.702V212.741C272.779 214.172 273.938 215.331 275.369 215.331H295.465C296.896 215.331 298.056 214.172 298.056 212.741V200.702C298.056 199.271 296.896 198.111 295.465 198.111Z" fill="#1F3C88"/>
<path d="M255.136 198.111H235.041C233.61 198.111 232.45 199.271 232.45 200.702V212.741C232.45 214.172 233.61 215.331 235.041 215.331H255.136C256.567 215.331 257.727 214.172 257.727 212.741V200.702C257.727 199.271 256.567 198.111 255.136 198.111Z" fill="#D3DFFF"/>
<path d="M214.81 198.111H194.714C193.283 198.111 192.124 199.271 192.124 200.702V212.741C192.124 214.172 193.283 215.331 194.714 215.331H214.81C216.241 215.331 217.401 214.172 217.401 212.741V200.702C217.401 199.271 216.241 198.111 214.81 198.111Z" fill="#D3DFFF"/>
<path d="M174.481 198.111H154.386C152.955 198.111 151.795 199.271 151.795 200.702V212.741C151.795 214.172 152.955 215.331 154.386 215.331H174.481C175.912 215.331 177.072 214.172 177.072 212.741V200.702C177.072 199.271 175.912 198.111 174.481 198.111Z" fill="#D3DFFF"/>
<path d="M295.465 229.253H275.369C273.938 229.253 272.779 230.413 272.779 231.843V243.883C272.779 245.313 273.938 246.473 275.369 246.473H295.465C296.896 246.473 298.056 245.313 298.056 243.883V231.843C298.056 230.413 296.896 229.253 295.465 229.253Z" fill="#1F3C88"/>
<path d="M255.136 229.253H235.041C233.61 229.253 232.45 230.413 232.45 231.843V243.883C232.45 245.313 233.61 246.473 235.041 246.473H255.136C256.567 246.473 257.727 245.313 257.727 243.883V231.843C257.727 230.413 256.567 229.253 255.136 229.253Z" fill="#D3DFFF"/>
<path d="M214.81 229.253H194.714C193.283 229.253 192.124 230.413 192.124 231.843V243.883C192.124 245.313 193.283 246.473 194.714 246.473H214.81C216.241 246.473 217.401 245.313 217.401 243.883V231.843C217.401 230.413 216.241 229.253 214.81 229.253Z" fill="#D3DFFF"/>
<path d="M174.481 229.253H154.386C152.955 229.253 151.795 230.413 151.795 231.843V243.883C151.795 245.313 152.955 246.473 154.386 246.473H174.481C175.912 246.473 177.072 245.313 177.072 243.883V231.843C177.072 230.413 175.912 229.253 174.481 229.253Z" fill="#D3DFFF"/>
<path d="M295.465 261.494H275.369C273.938 261.494 272.779 262.653 272.779 264.084V276.123C272.779 277.554 273.938 278.714 275.369 278.714H295.465C296.896 278.714 298.056 277.554 298.056 276.123V264.084C298.056 262.653 296.896 261.494 295.465 261.494Z" fill="#FBC343"/>
<path d="M255.136 261.494H235.041C233.61 261.494 232.45 262.653 232.45 264.084V276.123C232.45 277.554 233.61 278.714 235.041 278.714H255.136C256.567 278.714 257.727 277.554 257.727 276.123V264.084C257.727 262.653 256.567 261.494 255.136 261.494Z" fill="#D3DFFF"/>
<path d="M214.81 261.494H194.714C193.283 261.494 192.124 262.653 192.124 264.084V276.123C192.124 277.554 193.283 278.714 194.714 278.714H214.81C216.241 278.714 217.401 277.554 217.401 276.123V264.084C217.401 262.653 216.241 261.494 214.81 261.494Z" fill="#D3DFFF"/>
<path d="M174.481 261.494H154.386C152.955 261.494 151.795 262.653 151.795 264.084V276.123C151.795 277.554 152.955 278.714 154.386 278.714H174.481C175.912 278.714 177.072 277.554 177.072 276.123V264.084C177.072 262.653 175.912 261.494 174.481 261.494Z" fill="#D3DFFF"/>
<path d="M262.358 111.739C262.843 111.766 263.33 111.746 263.812 111.678C264.85 111.551 265.822 111.1 266.59 110.39C267.468 109.595 268.102 108.429 268.347 106.859H268.287C267.911 107.319 267.435 107.687 266.895 107.935C266.355 108.184 265.765 108.305 265.171 108.29C262.78 108.29 261.248 106.491 261.248 104.224C261.248 101.711 263.066 99.5042 265.782 99.5042C268.497 99.5042 270.173 101.711 270.173 105.101C270.173 108.024 269.193 110.066 267.888 111.334C266.832 112.334 265.475 112.958 264.028 113.11C263.479 113.199 262.922 113.234 262.366 113.214L262.358 111.739ZM263.012 104.1C263.012 105.762 264.014 106.919 265.565 106.919C266.083 106.936 266.596 106.818 267.054 106.575C267.512 106.333 267.898 105.975 268.175 105.537C268.292 105.34 268.349 105.112 268.339 104.883C268.339 102.616 267.508 100.88 265.622 100.88C264.09 100.871 263.008 102.213 263.008 104.1H263.012Z" fill="#3A6BEA"/>
<path d="M272.841 111.739C273.326 111.766 273.813 111.745 274.295 111.678C275.333 111.55 276.304 111.099 277.073 110.39C277.952 109.595 278.585 108.429 278.828 106.859H278.77C278.394 107.319 277.918 107.687 277.378 107.935C276.838 108.183 276.248 108.305 275.654 108.29C273.265 108.29 271.731 106.491 271.731 104.224C271.731 101.711 273.549 99.5042 276.267 99.5042C278.984 99.5042 280.64 101.708 280.64 105.099C280.64 108.022 279.659 110.064 278.355 111.331C277.297 112.331 275.94 112.955 274.492 113.108C273.943 113.197 273.387 113.232 272.83 113.212L272.841 111.739ZM273.493 104.1C273.493 105.762 274.495 106.919 276.046 106.919C276.566 106.936 277.081 106.817 277.54 106.573C277.999 106.329 278.386 105.969 278.662 105.529C278.779 105.331 278.835 105.104 278.824 104.875C278.824 102.608 277.993 100.871 276.109 100.871C274.576 100.871 273.493 102.213 273.493 104.1Z" fill="#3A6BEA"/>
<path d="M465.133 237.507H364.756V311.138H465.133V237.507Z" fill="#FBC343"/>
<path d="M465.135 254.177H438.391V255.276H465.135V254.177Z" fill="#E49B31"/>
<path d="M465.135 294.478H418.609V295.577H465.135V294.478Z" fill="#E49B31"/>
<path d="M414.795 264.188C414.795 272.759 413.491 281.279 410.926 289.457C409.008 295.581 405.185 300.933 400.014 304.734C394.843 308.534 388.593 310.585 382.176 310.587H364.756V237.511H410.484C413.342 246.115 414.797 255.122 414.795 264.188Z" fill="#E49B31"/>
<path d="M318 293.311H235.253C232.497 293.311 230.262 295.545 230.262 298.301V306.147C230.262 308.903 232.497 311.138 235.253 311.138H318C320.756 311.138 322.99 308.903 322.99 306.147V298.301C322.99 295.545 320.756 293.311 318 293.311Z" fill="#FBC343"/>
<path d="M312.737 280.463V288.322C312.737 289.645 312.212 290.913 311.277 291.848C310.342 292.783 309.074 293.308 307.751 293.308H224.998C223.676 293.308 222.407 292.783 221.472 291.848C220.537 290.913 220.012 289.645 220.012 288.322V280.463C220.012 279.141 220.537 277.873 221.472 276.938C222.407 276.003 223.676 275.477 224.998 275.477H307.747C309.069 275.481 310.336 276.007 311.271 276.941C312.206 277.875 312.733 279.142 312.737 280.463Z" fill="#FBC343"/>
<path d="M322.99 298.301V306.15C322.99 307.472 322.464 308.74 321.529 309.675C320.594 310.61 319.326 311.136 318.004 311.136H258.662C254.563 306.079 252.057 299.562 250.56 293.306C248.823 286.141 248.372 279.337 248.274 275.467H307.755C309.076 275.471 310.342 275.998 311.276 276.932C312.21 277.866 312.737 279.132 312.741 280.453V288.312C312.741 289.634 312.216 290.903 311.281 291.838C310.346 292.773 309.078 293.298 307.755 293.298H318.01C318.666 293.299 319.315 293.429 319.92 293.681C320.525 293.933 321.075 294.302 321.537 294.767C322 295.231 322.366 295.783 322.616 296.389C322.865 296.995 322.992 297.645 322.99 298.301Z" fill="#E49B31"/>
<path d="M366.48 152.094L359.793 172.614L359.298 174.13L356.205 183.652L356.182 183.718L346.191 183.498L307.855 182.638L305.053 174.614L304.579 173.274L297.162 152.094C320.177 160.061 339.147 142.642 366.48 152.094Z" fill="#FBC343"/>
<path d="M359.305 174.13L356.205 183.652L346.191 183.498L307.855 182.638L305.053 174.614C318.243 174.384 340.906 174.076 359.305 174.13Z" fill="#E49B31"/>
<path d="M402.134 290.02C400.217 296.145 396.394 301.498 391.222 305.298C386.05 309.098 379.8 311.147 373.382 311.146H286.557C280.447 311.143 274.507 309.136 269.648 305.432C264.789 301.729 261.279 296.533 259.657 290.643C257.756 283.74 256.71 276.631 256.541 269.473C256.541 268.792 256.52 268.11 256.52 267.429C256.52 266.623 256.531 265.818 256.553 265.015C257.262 239.399 269.777 215.541 289.866 199.636L310.641 183.19L358.174 184.289L384.303 209.294C388.004 212.787 391.224 216.756 393.88 221.096C400.055 231.346 403.984 242.789 405.409 254.669C406.835 266.549 405.723 278.597 402.149 290.016L402.134 290.02Z" fill="#FBC343"/>
<path d="M366.025 179.796H298.785C295.992 179.796 293.728 182.06 293.728 184.852V187.005C293.728 189.797 295.992 192.061 298.785 192.061H366.025C368.818 192.061 371.082 189.797 371.082 187.005V184.852C371.082 182.06 368.818 179.796 366.025 179.796Z" fill="#ED7545"/>
<path opacity="0.4" d="M402.134 290.02C400.217 296.145 396.394 301.498 391.222 305.298C386.05 309.098 379.8 311.147 373.382 311.146H286.557C280.447 311.143 274.507 309.136 269.648 305.432C264.789 301.729 261.279 296.533 259.657 290.643C257.756 283.74 256.71 276.631 256.541 269.473C270.905 283.168 287.832 301.072 327.398 301.623C376.529 302.304 397.703 279.277 401.507 237.521C407.287 254.51 407.506 272.898 402.134 290.02Z" fill="#E49B31"/>
<path d="M64.895 295.934L56.103 292.637L35.6791 310.589H59.8488L64.895 295.934Z" fill="#102048"/>
<path d="M64.895 295.934H84.3114L82.1134 309.856L59.8488 310.589L64.895 295.934Z" fill="#F9B384"/>
<path d="M142.833 217.891L142.118 222.761L141.69 225.696L138.613 246.789L137.437 254.846L136.399 262.034L133.663 280.762L131.753 293.759C131.064 298.487 128.695 302.808 125.081 305.932C121.467 309.056 116.848 310.775 112.071 310.774H69.1082L69.1622 310.224L70.5583 295.934L70.7661 293.923L100.705 288.15L104.729 258.936C102.749 250.439 103.233 242.262 104.091 236.524C104.816 231.634 105.828 228.521 105.828 228.521L119.193 224.686L142.833 217.891Z" fill="#1F3C88"/>
<path d="M133.656 280.762L131.753 293.759C131.064 298.487 128.695 302.808 125.081 305.932C121.467 309.056 116.848 310.775 112.071 310.774H109.869C129.555 307.246 125.71 282.102 133.656 280.762Z" fill="#102048"/>
<path d="M53.8041 303.523L49.5909 310.3L50.5242 310.88L54.7374 304.103L53.8041 303.523Z" fill="white"/>
<path d="M138.613 246.789L136.392 262.034C130.206 260.264 122.045 251.42 122.045 251.42L138.613 246.789Z" fill="#102048"/>
<path d="M184.133 285.676C184.133 285.676 173.692 291.034 155.009 287.599L170.532 277.295L184.133 285.676Z" fill="#102048"/>
<path d="M178.387 293.061L161.692 293.435L161.595 289.831L161.331 279.95L176.168 281.049L176.87 284.861L178.387 293.061Z" fill="#F9B384"/>
<path d="M176.87 284.861L161.595 289.831L161.331 279.95L176.168 281.049L176.87 284.861Z" fill="#E28B6D"/>
<path d="M197.324 310.726L178.913 295.889L178.391 293.065L161.69 293.435L162.153 310.726H197.324Z" fill="#102048"/>
<path d="M184.76 300.07L178.164 304.188L178.747 305.121L185.342 301.002L184.76 300.07Z" fill="white"/>
<path d="M105.826 228.526L165.565 219.04C168.359 218.595 171.221 218.971 173.806 220.12C176.324 221.239 178.475 223.046 180.012 225.333C181.549 227.62 182.409 230.294 182.494 233.048L184.133 285.682C184.133 285.682 167.098 282.109 155.009 287.606L153.912 251.603C146.607 254.927 133.955 255.633 121.133 254.351L105.826 228.526Z" fill="#1F3C88"/>
<path d="M175.726 284.026H174.627C174.627 274.918 174.845 267.358 175.042 260.687C175.514 244.446 175.774 235.498 171.635 231.712C168.288 228.648 161.597 228.742 151.886 229.891C141.482 231.104 137.333 220.027 137.292 219.918L138.331 219.542C138.484 219.958 142.222 229.951 151.762 228.802C162.039 227.589 168.708 227.543 172.381 230.904C176.891 235.032 176.642 243.619 176.143 260.725C175.934 267.375 175.726 274.935 175.726 284.026Z" fill="#3A6BEA"/>
<path d="M155.03 280.968L154.639 279.942C154.778 279.888 168.714 274.702 184.092 278.548L183.826 279.614C168.795 275.853 155.159 280.916 155.03 280.968Z" fill="#3A6BEA"/>
<path d="M75.2098 310.928C73.5001 307.502 76.1489 293.321 76.2611 292.718L77.3414 292.926C76.5872 296.925 74.9086 307.87 76.1946 310.44L75.2098 310.928Z" fill="#3A6BEA"/>
<path d="M136.887 224.123C136.887 224.123 132.667 233.104 123.148 239.15C119.918 241.194 116.741 242.127 113.895 242.14C109.597 242.14 106.025 240.062 104.091 236.53C104.816 231.64 105.828 228.528 105.828 228.528L119.193 224.693L132.678 224.265L136.887 224.123Z" fill="#102048"/>
<path d="M126.159 170.002V182.723H138.615V171.72L126.159 170.002Z" fill="#ED7545"/>
<path d="M138.615 163.855H126.159V170.002L138.615 171.72V163.855Z" fill="#F9B384"/>
<path d="M129.832 165.594C130.106 165.594 132.836 169.878 138.615 171.72L138.532 165.045L129.832 165.594Z" fill="#102048"/>
<path d="M140.08 148.65C140.08 148.65 146.948 167.152 138.065 168.342C129.181 169.533 127.806 165.502 127.806 165.502L125.06 155.703L131.197 147.459L140.08 148.65Z" fill="#F9B384"/>
<path d="M144.293 157.568C144.312 156.506 143.467 155.629 142.405 155.609C141.343 155.589 140.466 156.435 140.446 157.497C140.426 158.559 141.271 159.436 142.334 159.456C143.396 159.476 144.273 158.63 144.293 157.568Z" fill="#F9B384"/>
<path d="M130.737 157.442C130.737 157.442 131.197 147.551 140.086 148.65C140.086 148.65 134.107 140.963 126.229 143.948C122.228 145.461 119.552 149.281 119.166 153.54C118.661 159.046 121.866 165.32 126.362 166.421C127.543 163.794 128.855 161.229 130.293 158.734L130.737 157.442Z" fill="#102048"/>
<path d="M131.755 161.002C133.106 160.367 133.6 158.572 132.857 156.992C132.115 155.413 130.418 154.647 129.067 155.282C127.716 155.917 127.223 157.712 127.965 159.291C128.707 160.871 130.404 161.637 131.755 161.002Z" fill="#F9B384"/>
<path opacity="0.4" d="M139.59 158.675C139.61 157.284 138.499 156.141 137.109 156.121C135.718 156.101 134.575 157.212 134.555 158.603C134.535 159.993 135.646 161.137 137.037 161.156C138.427 161.176 139.571 160.065 139.59 158.675Z" fill="#EB5D60"/>
<path d="M130.976 159.183C130.903 159.183 130.833 159.154 130.782 159.102C130.73 159.051 130.701 158.981 130.7 158.908C130.688 158.443 130.505 157.999 130.186 157.66C129.866 157.321 129.433 157.113 128.969 157.074C128.897 157.064 128.832 157.025 128.788 156.967C128.744 156.908 128.725 156.835 128.735 156.762C128.746 156.691 128.785 156.627 128.843 156.583C128.9 156.54 128.972 156.52 129.044 156.528C131.226 156.835 131.251 158.888 131.251 158.908C131.251 158.944 131.243 158.98 131.23 159.013C131.216 159.047 131.196 159.077 131.17 159.102C131.145 159.128 131.115 159.148 131.081 159.162C131.048 159.176 131.012 159.183 130.976 159.183Z" fill="#102048"/>
<path d="M172.593 151.866C172.593 151.866 182.201 152.599 187.43 158.736L175.533 161.667L172.593 151.866Z" fill="#BA5C36"/>
<path d="M189.62 146.591C189.664 147.47 187.246 151.855 185.465 154.965C184.426 156.758 183.608 158.121 183.608 158.121L177.201 159.991L172.63 153.1L172.402 152.757C172.402 152.757 172.468 152.46 172.589 151.926V151.916C172.599 151.903 172.599 151.882 172.612 151.849C173.38 148.585 176.106 137.462 177.679 137.088C179.062 136.768 178.25 142.858 178.25 142.858C178.25 142.858 181.674 132.96 183.695 133.376C185.311 133.696 182.145 143.192 182.145 143.192C182.145 143.192 183.278 142.004 184.431 142.378C184.778 142.489 185.088 142.691 185.33 142.964C185.572 143.237 185.735 143.57 185.804 143.928C185.804 143.928 186.616 143.356 187.43 143.84C188.245 144.324 188.166 145.874 188.166 145.874C188.166 145.874 189.533 145.218 189.62 146.591Z" fill="#F9B384"/>
<path d="M123.248 178.25L118.896 195.265L112.148 221.649C107.565 223.683 102.728 224.429 98.8934 223.791C94.4413 223.056 91.3313 220.467 91.539 215.878C92.0896 203.515 123.248 178.25 123.248 178.25Z" fill="#ED7545"/>
<path d="M122.413 183.089L118.896 195.271L112.148 221.655C107.565 223.689 102.728 224.435 98.8934 223.797C108.674 195.73 122.413 183.089 122.413 183.089Z" fill="#BA5C36"/>
<path d="M149.614 221.585C140.547 222.208 111.971 245.831 105.103 230.587C105.103 230.587 106.059 173.717 135.414 174.772C137.958 174.868 140.411 175.746 142.439 177.286C144.466 178.827 145.97 180.954 146.745 183.379C147.633 186.3 148.287 189.288 148.702 192.313C149.36 197.019 149.734 201.761 149.823 206.512C149.944 210.902 149.888 215.903 149.614 221.585Z" fill="#ED7545"/>
<path d="M149.823 206.504C145.284 203.571 140.547 194.723 140.547 194.723L148.702 192.304C149.36 197.011 149.734 201.753 149.823 206.504Z" fill="#BA5C36"/>
<path d="M185.465 154.965C184.426 156.758 183.608 158.121 183.608 158.121L177.201 159.991L172.63 153.1L172.597 151.934V151.866H172.61L185.465 154.965Z" fill="#E28B6D"/>
<path d="M135.422 174.772C135.422 174.772 149.514 175.757 158.032 177.419L172.593 151.866C177.043 155.424 181.989 157.714 187.43 158.736L174.687 188.756C173.309 191.556 171.196 193.929 168.575 195.622C165.954 197.316 162.923 198.267 159.804 198.373L137.975 199.119L135.422 174.772Z" fill="#ED7545"/>
<path d="M158.032 177.822H157.957C157.687 177.772 131.068 172.89 126.533 176.902C126.449 176.965 126.344 176.994 126.24 176.984C126.135 176.973 126.039 176.923 125.969 176.844C125.9 176.765 125.863 176.663 125.867 176.558C125.87 176.453 125.912 176.353 125.986 176.278C130.82 172.003 156.995 176.796 158.106 177.004C158.202 177.028 158.285 177.086 158.342 177.167C158.398 177.247 158.424 177.345 158.415 177.443C158.406 177.542 158.363 177.633 158.293 177.702C158.222 177.771 158.13 177.813 158.032 177.82V177.822Z" fill="#BA5C36"/>
<path d="M449.749 287.14L451.581 310.589H421.083L436.469 299.965L436.195 285.31L449.749 287.14Z" fill="#102048"/>
<path d="M494.721 277.158L502.962 297.216L482.081 314.802L485.104 295.018L480.982 281.828L494.721 277.158Z" fill="#102048"/>
<path d="M457.812 164.034C457.491 164.99 457.234 165.966 457.043 166.957C456.627 168.991 456.285 171.585 455.988 174.643C455.022 184.615 454.614 199.451 454.504 215.201C454.274 250.67 455.614 290.822 455.614 290.822L450.031 290.732L436.293 290.525L431.436 290.448C424.071 234.26 426.171 186.809 427.281 170.289C427.314 169.718 427.357 169.19 427.38 168.696C427.611 165.662 427.765 164.046 427.765 164.046L457.812 164.034Z" fill="#1F3C88"/>
<path d="M499.939 282.379L497.147 283.071L482.509 286.731L473.561 288.981C473.561 288.981 462.966 249.664 454.504 215.207C450.438 198.587 446.855 183.101 445.205 173.704C444.634 170.38 444.293 167.823 444.25 166.24L457.043 166.965L473.2 167.889C473.2 167.889 473.594 170.208 474.365 174.373C477.442 190.975 486.465 236.962 499.939 282.379Z" fill="#1F3C88"/>
<path d="M474.365 174.365C468.252 174.864 462.113 174.956 455.987 174.641C452.13 174.434 448.508 174.101 445.205 173.696C439.161 172.955 433.173 171.813 427.281 170.277C425.411 169.772 424.372 169.446 424.372 169.446L427.374 168.687L445.88 164.038H457.805C457.485 164.994 457.228 165.971 457.037 166.961L473.193 167.885C473.193 167.885 473.594 170.2 474.365 174.365Z" fill="#102048"/>
<path d="M455.075 219.488C454.186 215.761 449.988 198.113 449.441 195.123L440.946 191.939L441.333 190.91L450.474 194.34V194.72C450.538 195.537 453.895 209.83 456.139 219.235L455.075 219.488Z" fill="#3A6BEA"/>
<path d="M433.509 235.575C429.512 235.575 426.973 234.582 426.832 234.536L427.247 233.516C427.291 233.534 431.774 235.269 438.113 234.037L438.32 235.115C436.735 235.423 435.124 235.577 433.509 235.575Z" fill="#3A6BEA"/>
<path d="M465.33 234.804C463.696 234.799 462.066 234.656 460.456 234.374L460.664 233.291C460.741 233.308 468.172 234.683 471.604 232.284L472.227 233.183C470.399 234.463 467.688 234.804 465.33 234.804Z" fill="#3A6BEA"/>
<path d="M436.497 301.808L435.826 302.677L440.11 305.984L440.78 305.116L436.497 301.808Z" fill="white"/>
<path d="M485.283 294.475L484.87 295.493L490.731 297.873L491.144 296.855L485.283 294.475Z" fill="white"/>
<path d="M441.69 103.952C441.69 103.952 422.822 106.333 418.061 127.582L423.738 152.863L421.175 169.716C421.175 169.716 446.819 172.281 473.195 167.885L465.183 124.927L441.69 103.952Z" fill="#ED7545"/>
<path d="M453.413 157.809C453.413 157.809 447.734 153.642 455.152 135.372L460.099 153.372L453.413 157.809Z" fill="#6E3620"/>
<path d="M452.681 121.576L452.921 122.03C452.995 122.17 453.041 122.324 453.056 122.482C453.071 122.64 453.055 122.799 453.008 122.951C452.962 123.103 452.885 123.244 452.784 123.366C452.683 123.488 452.559 123.59 452.418 123.664L431.3 134.845L429.929 132.255L451.043 121.075C451.326 120.925 451.658 120.894 451.964 120.988C452.271 121.082 452.527 121.295 452.677 121.578L452.681 121.576Z" fill="#102048"/>
<path d="M458.175 151.866L457.614 151.558L450.328 147.623L438.115 141.007C437.895 139.534 438.061 138.281 438.946 137.423L438.341 137.182C437.851 136.974 437.42 136.649 437.086 136.235C436.752 135.821 436.526 135.33 436.428 134.807L436.407 134.676C436.178 133.826 436.156 132.933 436.341 132.071L436.627 131.697C437.342 130.762 437.666 130.291 438.582 129.553L437.022 129.643C437.022 129.643 433.177 130.696 434.967 128.224C436.197 126.51 438.956 125.057 440.529 124.332C440.853 124.18 441.216 124.132 441.568 124.195C441.921 124.258 442.245 124.429 442.496 124.684C447.781 130.17 457.08 136.733 457.08 136.733L457.18 138.075L458.08 150.418L458.175 151.866Z" fill="#F9B384"/>
<path d="M443.766 130.852L440.442 129.227C440.097 129.057 439.707 129.002 439.328 129.069L435.796 129.692L435.701 129.15L439.232 128.527C439.727 128.44 440.236 128.513 440.687 128.735L444.011 130.359L443.766 130.852Z" fill="#E28B6D"/>
<path d="M443.148 133.976L439.153 132.447C438.976 132.38 438.788 132.346 438.599 132.345H436.328V131.797H438.599C438.856 131.797 439.111 131.843 439.351 131.934L443.342 133.463L443.148 133.976Z" fill="#E28B6D"/>
<path d="M442.598 137.09L438.977 135.721C438.689 135.614 438.381 135.575 438.075 135.609L436.592 135.78L436.53 135.233L438.013 135.063C438.405 135.019 438.803 135.069 439.172 135.208L442.793 136.577L442.598 137.09Z" fill="#E28B6D"/>
<path d="M458.075 150.426L457.614 151.548L450.328 147.613L455.152 135.368L457.174 138.084L458.075 150.426Z" fill="#E28B6D"/>
<path d="M453.413 157.809C453.413 157.809 464.312 168.16 473.196 167.885L470.632 155.703L453.413 157.809Z" fill="#BA5C36"/>
<path d="M441.69 103.952C442.881 103.857 444.076 103.836 445.27 103.888C467.27 104.642 484.119 123.572 483.049 145.56C482.604 154.65 480.244 163.674 472.647 163.855L453.413 157.809C455.227 151.006 456.582 143.95 455.152 135.372L464.086 139.631L441.69 103.952Z" fill="#ED7545"/>
<path d="M447.964 156.966L421.081 157.627L420.346 155.35L417.641 147.042L409.817 123.003L436.7 122.344L447.964 156.966Z" fill="#D3DFFF"/>
<path opacity="0.3" d="M423.346 144.162C423.346 144.162 423.302 151.591 420.346 155.35L417.645 147.04L423.346 144.162Z" fill="#1F3C88"/>
<path d="M410.307 143.581C411.155 140.847 412.696 138.322 414.394 136.045C414.934 135.322 416.108 133.54 417.236 133.812C419.521 134.361 417.236 138.383 417.236 138.383C417.236 138.383 419.434 135.086 420.259 136.733C421.083 138.381 419.891 140.215 419.891 140.215C419.891 140.215 423.373 137.93 422.091 142.5C422.091 142.5 424.929 142.135 423.19 145.247C421.943 147.47 421.144 149.948 419.588 151.99C418.032 154.032 415.073 155.202 412.628 154.028C409.751 152.651 409.383 148.972 409.738 146.169C409.853 145.291 410.043 144.425 410.307 143.581Z" fill="#F9B384"/>
<path d="M415.243 142.856C415.205 142.856 415.167 142.848 415.131 142.833C415.065 142.803 415.013 142.748 414.987 142.68C414.961 142.611 414.963 142.536 414.992 142.469L417.601 136.563C417.616 136.53 417.637 136.5 417.663 136.475C417.689 136.45 417.72 136.431 417.754 136.418C417.787 136.405 417.823 136.398 417.859 136.399C417.895 136.4 417.931 136.408 417.964 136.423C417.997 136.437 418.027 136.458 418.052 136.484C418.077 136.51 418.096 136.541 418.109 136.575C418.122 136.608 418.129 136.644 418.128 136.68C418.127 136.716 418.119 136.752 418.104 136.785L415.495 142.693C415.473 142.742 415.438 142.783 415.393 142.812C415.349 142.841 415.297 142.856 415.243 142.856Z" fill="#E28B6D"/>
<path d="M417.921 145.056C417.881 145.056 417.841 145.047 417.805 145.029C417.74 144.997 417.689 144.941 417.664 144.873C417.639 144.805 417.642 144.729 417.672 144.663L420.146 139.374C420.177 139.307 420.233 139.256 420.302 139.231C420.37 139.206 420.446 139.21 420.512 139.241C420.578 139.272 420.629 139.327 420.654 139.396C420.679 139.465 420.676 139.54 420.645 139.606L418.171 144.896C418.149 144.943 418.114 144.984 418.07 145.012C418.025 145.041 417.974 145.056 417.921 145.056Z" fill="#E28B6D"/>
<path d="M419.982 146.84C419.938 146.84 419.895 146.829 419.856 146.809C419.823 146.792 419.795 146.769 419.772 146.742C419.748 146.714 419.731 146.682 419.72 146.647C419.709 146.613 419.705 146.576 419.708 146.54C419.712 146.504 419.722 146.469 419.739 146.437L421.869 142.384C421.903 142.319 421.961 142.271 422.03 142.249C422.1 142.228 422.175 142.235 422.239 142.269C422.304 142.302 422.352 142.361 422.374 142.43C422.396 142.5 422.389 142.575 422.355 142.639L420.225 146.693C420.202 146.737 420.167 146.775 420.125 146.801C420.082 146.827 420.032 146.84 419.982 146.84Z" fill="#E28B6D"/>
<path d="M428.868 124.744H419.251L417.601 121.447H427.218L428.868 124.744Z" fill="#102048"/>
<path d="M441.439 114.678C439.746 114.691 438.089 114.191 436.685 113.245C436.615 113.173 436.572 113.079 436.566 112.978C436.56 112.878 436.59 112.779 436.652 112.699C436.713 112.619 436.801 112.564 436.9 112.545C436.999 112.525 437.101 112.542 437.188 112.593C437.346 112.711 441.075 115.486 446.067 112.474C446.159 112.439 446.26 112.438 446.353 112.47C446.446 112.503 446.524 112.567 446.574 112.652C446.624 112.736 446.642 112.836 446.625 112.933C446.609 113.029 446.558 113.117 446.483 113.18C444.619 114.315 442.893 114.678 441.439 114.678Z" fill="#BA5C36"/>
<path d="M453.413 158.221C453.374 158.22 453.335 158.215 453.297 158.204C453.193 158.172 453.105 158.101 453.053 158.005C453.001 157.909 452.988 157.796 453.019 157.691C456.966 144.31 454.778 135.559 454.756 135.472L454.594 134.849L471.615 137.701C471.674 137.703 471.732 137.717 471.785 137.744C471.838 137.77 471.885 137.807 471.923 137.853C471.961 137.898 471.988 137.952 472.004 138.009C472.019 138.066 472.022 138.126 472.012 138.185C472.002 138.243 471.98 138.299 471.947 138.348C471.914 138.397 471.871 138.439 471.82 138.47C471.77 138.501 471.714 138.521 471.655 138.529C471.596 138.536 471.536 138.531 471.48 138.514L455.69 135.867C456.106 138.104 457.238 146.331 453.821 157.917C453.796 158.006 453.742 158.084 453.669 158.139C453.595 158.193 453.505 158.222 453.413 158.221Z" fill="#BA5C36"/>
<path d="M465.868 137.429H465.843C465.734 137.422 465.633 137.372 465.561 137.29C465.488 137.208 465.451 137.102 465.457 136.993C465.457 136.903 465.918 128.037 459.758 118.929C459.714 118.839 459.704 118.736 459.73 118.639C459.756 118.543 459.816 118.458 459.899 118.402C459.981 118.346 460.082 118.322 460.181 118.334C460.281 118.346 460.372 118.393 460.44 118.468C466.763 127.816 466.286 136.957 466.279 137.043C466.272 137.147 466.226 137.245 466.149 137.316C466.073 137.388 465.973 137.428 465.868 137.429Z" fill="#BA5C36"/>
<path d="M449.246 93.8347V104.442C449.246 107.864 446.579 110.638 443.286 110.638C439.993 110.638 437.325 107.864 437.325 104.442V93.8347H449.246Z" fill="#F9B384"/>
<path d="M443.612 95.2495C443.612 95.2495 442.989 101.804 437.325 103.699V94.3894L443.612 95.2495Z" fill="#102048"/>
<path d="M432.828 81.7436C432.828 81.7436 430.979 96.6227 436.775 98.3865C442.571 100.15 447.879 95.0251 447.879 95.0251L446.786 82.7512L438.212 77.7091L432.828 81.7436Z" fill="#F9B384"/>
<path d="M465.825 110.66L454.384 111.419C452.929 109.823 452.117 107.584 451.581 105.053C451.097 107.656 451.479 109.821 452.757 111.529L449.657 111.737C446.909 107.625 444.601 98.5257 447.326 90.7434L447.646 88.9069C447.646 88.9069 445.689 82.9839 442.854 82.7304C442.854 82.7304 433.127 89.2933 428.797 81.9722C425.567 76.5208 428.292 69.3534 436.068 74.6406C436.068 74.6406 454.741 65.8798 454.697 83.8398C454.687 87.062 455.896 90.2261 458.281 92.3805C458.485 92.5814 458.701 92.7688 458.929 92.9414C463.109 96.2612 467.628 102.878 465.825 110.66Z" fill="#102048"/>
<path d="M450.59 89.8635C451.143 88.1489 450.402 86.3759 448.935 85.9033C447.468 85.4307 445.832 86.4375 445.279 88.1521C444.727 89.8667 445.468 91.6398 446.934 92.1124C448.401 92.5849 450.038 91.5781 450.59 89.8635Z" fill="#F9B384"/>
<path d="M447.551 90.0287C447.478 90.0287 447.408 89.9998 447.357 89.9484C447.305 89.897 447.276 89.8272 447.276 89.7545C447.276 88.5682 448.213 87.5191 449.323 87.4692H449.335C449.408 87.4673 449.479 87.4944 449.531 87.5444C449.584 87.5945 449.615 87.6635 449.617 87.7362C449.619 87.8089 449.592 87.8795 449.542 87.9322C449.492 87.985 449.423 88.0158 449.35 88.0177C448.614 88.0551 447.825 88.7635 447.825 89.7587C447.824 89.8307 447.794 89.8994 447.743 89.9499C447.692 90.0004 447.623 90.0287 447.551 90.0287Z" fill="#102048"/>
<path d="M434.866 87.4173C434.866 87.5534 434.826 87.6865 434.751 87.7999C434.675 87.9132 434.568 88.0017 434.442 88.0541C434.317 88.1064 434.179 88.1203 434.045 88.094C433.911 88.0677 433.789 88.0024 433.692 87.9063C433.596 87.8102 433.53 87.6877 433.504 87.5543C433.477 87.4208 433.49 87.2824 433.542 87.1567C433.594 87.0309 433.682 86.9234 433.796 86.8477C433.909 86.7721 434.042 86.7317 434.178 86.7317C434.36 86.7317 434.534 86.8039 434.663 86.9324C434.792 87.0609 434.865 87.2352 434.866 87.4173Z" fill="#102048"/>
<path d="M439.01 87.0745C439.01 87.2105 438.97 87.3434 438.894 87.4565C438.819 87.5696 438.711 87.6578 438.586 87.7098C438.46 87.7619 438.322 87.7755 438.188 87.7489C438.055 87.7224 437.932 87.6569 437.836 87.5607C437.74 87.4646 437.675 87.342 437.648 87.2086C437.621 87.0753 437.635 86.937 437.687 86.8113C437.739 86.6857 437.827 86.5783 437.94 86.5027C438.053 86.4272 438.186 86.3868 438.322 86.3868C438.505 86.3868 438.68 86.4593 438.809 86.5883C438.938 86.7172 439.01 86.8921 439.01 87.0745Z" fill="#102048"/>
<path d="M435.85 92.0211C435.815 92.0214 435.78 92.0147 435.747 92.0011C435.714 91.9875 435.684 91.9675 435.659 91.9421C435.1 91.3957 434.872 90.8784 434.98 90.4027C435.04 90.2054 435.142 90.0234 435.279 89.8692C435.416 89.7151 435.585 89.5923 435.773 89.5093L435.713 88.1527C435.71 88.0799 435.736 88.0089 435.785 87.9549C435.834 87.9009 435.902 87.8683 435.975 87.864C436.047 87.8627 436.118 87.8895 436.171 87.9386C436.224 87.9877 436.257 88.0554 436.262 88.1278L436.341 89.8771L436.145 89.9456C435.994 89.9976 435.586 90.2053 435.522 90.5252C435.458 90.8452 435.765 91.2732 436.05 91.5495C436.075 91.5749 436.096 91.6052 436.109 91.6385C436.123 91.6719 436.13 91.7076 436.13 91.7437C436.13 91.7798 436.123 91.8155 436.109 91.8489C436.096 91.8822 436.075 91.9125 436.05 91.938C436.024 91.9648 435.993 91.986 435.959 92.0003C435.924 92.0146 435.887 92.0217 435.85 92.0211Z" fill="#102048"/>
<path d="M436.405 94.0009C436.274 94.0016 436.142 93.9933 436.012 93.976C435.941 93.9642 435.877 93.9246 435.834 93.8659C435.792 93.8071 435.774 93.7339 435.786 93.6623C435.8 93.5914 435.839 93.5283 435.898 93.4856C435.956 93.4428 436.028 93.4236 436.1 93.4317C436.573 93.4731 437.05 93.4181 437.502 93.2699C437.954 93.1217 438.371 92.8835 438.728 92.5695C438.783 92.5218 438.854 92.498 438.927 92.5033C439 92.5085 439.067 92.5424 439.115 92.5975C439.163 92.6526 439.187 92.7244 439.181 92.7971C439.176 92.8697 439.142 92.9373 439.087 92.985C438.346 93.6374 437.393 93.9984 436.405 94.0009Z" fill="#102048"/>
<path opacity="0.4" d="M441.74 92.021C442.736 92.021 443.543 91.2137 443.543 90.2178C443.543 89.2218 442.736 88.4145 441.74 88.4145C440.744 88.4145 439.937 89.2218 439.937 90.2178C439.937 91.2137 440.744 92.021 441.74 92.021Z" fill="#EB5D60"/>
<path d="M335.013 276.284L314.464 250.573L314.583 245.478C324.227 246.143 331.725 245.122 333.469 235.999L312.92 235.882L316.246 230.312L332.638 230.548C330.14 225.357 323.271 224.717 312.563 225.098L316.246 219.647L351.05 219.595L347.605 224.979H337.983C339.742 226.835 341.029 228.971 341.072 230.784L351.05 230.666L347.605 235.998L340.953 236.116C339.915 244.07 332.607 248.779 323.373 249.861L344.06 276.277L335.014 276.282L335.013 276.284Z" fill="white" stroke="white" stroke-width="0.099084"/>
</svg>
