<svg width="1920" height="350" viewBox="0 0 1920 350" fill="none" xmlns="http://www.w3.org/2000/svg">
<rect width="1920" height="350" fill="#1F4B9E"/>
<mask id="mask0_280_23" style="mask-type:alpha" maskUnits="userSpaceOnUse" x="0" y="0" width="1920" height="350">
<rect width="1920" height="350" fill="#1F4B9E"/>
</mask>
<g mask="url(#mask0_280_23)">
<path style="mix-blend-mode:multiply" opacity="0.29" d="M-1.03347 425.208C6.76938 403.761 4.62442 380.22 0.500204 357.851C-3.62401 335.481 -9.65489 313.21 -9.34402 290.493C-8.8259 253.412 9.74341 216.857 40.0636 193.763C70.3838 170.669 111.895 161.572 149.635 169.954C173.468 175.262 195.934 187.146 220.42 188.118C245.559 189.11 269.444 178.476 294.19 174.121C352.944 163.794 415.916 192.106 448.785 239.851C481.655 287.597 484.784 351.661 460.723 403.999C436.662 456.337 387.337 496.494 330.852 515.104C274.367 533.714 211.488 531.531 154.827 513.447C127.035 504.578 100.58 492.03 72.3941 484.391C44.2085 476.753 13.0904 474.352 -13.6858 485.701L-52.5964 466.029C-28.8563 465.404 -8.84667 446.655 -1.03347 425.208Z" fill="url(#paint0_linear_280_23)"/>
<g style="mix-blend-mode:overlay" opacity="0.24">
<path d="M-71 128.112V380.28H308.075C306.819 369.615 304.437 359.099 300.967 348.893C288.779 313.946 263.961 284.312 230.979 265.326C213.814 255.38 194.619 249.074 174.691 246.835C148.651 244.048 119.294 247.41 99.2222 231.29C87.1501 221.588 81.285 206.778 73.7619 193.515C52.3326 155.818 11.9713 126.891 -32.7837 123.856C-45.6869 123.034 -58.6383 124.476 -71 128.112Z" fill="#F8E6CB"/>
</g>
<path style="mix-blend-mode:soft-light" opacity="0.25" d="M35.4628 380.28H539C537.428 366.656 533.971 353.292 528.721 340.54C516.576 310.859 492.287 282.567 459.293 278.044C445.076 276.06 431.107 278.738 417.584 283.539C408.131 286.878 397.83 287.335 388.094 284.849C378.358 282.363 369.663 277.054 363.203 269.651C349.765 254.169 330.974 243.812 310.241 240.459C289.508 237.107 268.206 240.981 250.202 251.378C243.356 255.438 236.912 260.087 230.948 265.267C213.622 279.928 198.079 297.011 176.318 303.36C153.656 309.947 128.89 303.36 105.668 307.774C71.6273 314.292 46.6023 344.022 36.727 375.875C36.2779 377.317 35.8565 378.785 35.4628 380.28Z" fill="url(#paint1_linear_280_23)"/>
</g>
<defs>
<linearGradient id="paint0_linear_280_23" x1="476.484" y1="347.474" x2="-52.5964" y2="347.474" gradientUnits="userSpaceOnUse">
<stop stop-color="#D1D5DE"/>
<stop offset="1" stop-color="#DBDBDB"/>
</linearGradient>
<linearGradient id="paint1_linear_280_23" x1="539" y1="309.897" x2="35.4627" y2="309.897" gradientUnits="userSpaceOnUse">
<stop stop-color="#D1D5DE"/>
<stop offset="1" stop-color="#DBDBDB"/>
</linearGradient>
</defs>
</svg>
