<svg width="185" height="57" viewBox="0 0 185 57" fill="none" xmlns="http://www.w3.org/2000/svg">
<path d="M24.968 46.177H11.6606V47.0946H24.968V46.177Z" fill="white"/>
<path d="M11.6606 44.6685V43.2505H24.8629L24.919 44.6685H11.6606Z" fill="white"/>
<path d="M11.6606 41.7212V39.7749H24.7718L24.8138 41.7212H11.6606Z" fill="white"/>
<path d="M11.6606 38.2387V35.4095H24.6386L24.7017 38.2387H11.6606Z" fill="white"/>
<path d="M11.6606 33.922V29.5497H49.4595L49.7328 33.922H26.86L24.2532 29.5497L24.5686 33.922H11.6606Z" fill="white"/>
<path d="M11.6606 28.0343V22.6193H34.232L37.5746 28.0343L37.2593 22.6193H49.7328V28.0343H11.6606Z" fill="white"/>
<path d="M11.6606 21.097V10.5311L26.9231 10.5728L33.251 21.097H11.6606Z" fill="white"/>
<path d="M49.7328 10.5311H37.2593V21.097H49.7328V10.5311Z" fill="white"/>
<path d="M49.7328 35.4095V38.2387H29.7752L27.8831 35.4095H49.7328Z" fill="white"/>
<path d="M49.7328 39.7749V41.7212H32.0596L30.7632 39.7749H49.7328Z" fill="white"/>
<path d="M49.7328 43.2505V44.6755H34.0148L33.0757 43.2505H49.7328Z" fill="white"/>
<path d="M49.7328 46.177V47.0946H35.6405L35.0239 46.177H49.7328Z" fill="white"/>
<path d="M66.3197 46.177H53.2926V47.0946H66.3197V46.177Z" fill="white"/>
<path d="M66.3197 43.2505H53.2926V44.6685H66.3197V43.2505Z" fill="white"/>
<path d="M66.3197 39.7749H53.2926V41.7282H66.3197V39.7749Z" fill="white"/>
<path d="M66.3197 35.4095H53.2926V38.2387H66.3197V35.4095Z" fill="white"/>
<path d="M66.3197 29.5497H53.2926V33.929H66.3197V29.5497Z" fill="white"/>
<path d="M66.3197 22.6193H53.2926V28.0343H66.3197V22.6193Z" fill="white"/>
<path d="M66.3197 10.5311H53.2926V21.097H66.3197V10.5311Z" fill="white"/>
<path d="M88.7089 9.90546H95.6184V21.0969H70.4542C72.12 17.7111 74.7188 14.8628 77.9497 12.882C81.1805 10.9013 84.911 9.86926 88.7089 9.90546Z" fill="white"/>
<path d="M84.4483 22.6193C83.6481 23.2835 83.0017 24.1111 82.553 25.0455C82.1044 25.98 81.8641 26.9994 81.8485 28.0343H68.7303C68.8188 26.1857 69.1849 24.3606 69.8165 22.6193H84.4483Z" fill="white"/>
<path d="M81.9886 29.5497C82.2981 31.2677 83.218 32.8189 84.5814 33.922H69.5011C69.067 32.5018 68.8174 31.0325 68.7583 29.5497H81.9886Z" fill="white"/>
<path d="M95.6184 35.4095V38.2317H71.4773C70.93 37.3298 70.4611 36.3834 70.0757 35.4026L95.6184 35.4095Z" fill="white"/>
<path d="M95.6184 39.7749V41.7073H74.2242C73.6055 41.0984 73.0295 40.4481 72.5004 39.761L95.6184 39.7749Z" fill="white"/>
<path d="M95.6184 43.2505V44.6407H77.9873C77.2789 44.2131 76.5936 43.7491 75.9341 43.2505H95.6184Z" fill="white"/>
<path d="M95.6184 46.177V46.9625H83.8316C83.8316 46.9625 83.4392 47.1015 81.0987 46.177H95.6184Z" fill="white"/>
<path d="M102.444 10.6562H104.784L109.031 17.9898V10.6562H111.112V21.1665H108.877L104.525 13.7078V21.1665H102.444V10.6562Z" fill="white"/>
<path d="M116.024 16.4396C116.306 16.4165 116.584 16.3581 116.851 16.2658C116.979 16.2288 117.092 16.1521 117.172 16.047C117.253 15.9419 117.298 15.814 117.3 15.6819C117.31 15.5521 117.283 15.4219 117.223 15.3064C117.162 15.1909 117.07 15.0946 116.956 15.0285C116.643 14.8853 116.299 14.8209 115.954 14.8408C115.764 14.821 115.571 14.8424 115.39 14.9036C115.208 14.9648 115.042 15.0643 114.903 15.1954C114.747 15.3983 114.646 15.6376 114.609 15.8905H112.612C112.628 15.2862 112.831 14.7015 113.193 14.2152C113.747 13.5201 114.686 13.1865 115.996 13.1865C116.797 13.1736 117.589 13.3474 118.309 13.6939C118.651 13.8759 118.93 14.155 119.112 14.4956C119.293 14.8362 119.367 15.2227 119.325 15.6055V19.1715C119.325 19.4217 119.325 19.7206 119.325 20.0682C119.317 20.2568 119.361 20.4441 119.451 20.6104C119.547 20.7306 119.68 20.8161 119.83 20.8537V21.1526H117.58C117.523 21.0108 117.478 20.8643 117.447 20.7146C117.447 20.5756 117.405 20.4157 117.391 20.2419C117.102 20.5481 116.769 20.8104 116.403 21.0205C115.938 21.2752 115.413 21.4046 114.882 21.3958C114.232 21.4201 113.595 21.2047 113.095 20.7911C112.855 20.5793 112.667 20.3156 112.545 20.0204C112.424 19.7251 112.372 19.4062 112.395 19.088C112.365 18.6702 112.455 18.2526 112.655 17.8836C112.854 17.5145 113.155 17.2091 113.523 17.0027C114.097 16.7282 114.717 16.5586 115.352 16.5022L116.024 16.4396ZM117.293 17.378C117.164 17.4554 117.028 17.5206 116.886 17.5727C116.706 17.6349 116.521 17.6814 116.333 17.7117L115.863 17.7951C115.537 17.8362 115.22 17.9302 114.924 18.0732C114.769 18.156 114.64 18.2809 114.553 18.4335C114.466 18.5861 114.425 18.7601 114.434 18.9351C114.42 19.075 114.44 19.2161 114.493 19.3467C114.545 19.4773 114.628 19.5935 114.735 19.6858C114.934 19.8431 115.182 19.9266 115.436 19.9222C115.882 19.9226 116.318 19.7867 116.683 19.5329C116.89 19.3674 117.052 19.1541 117.156 18.9116C117.26 18.6692 117.302 18.4051 117.279 18.1427L117.293 17.378Z" fill="white"/>
<path d="M120.201 14.9104V13.4646H121.301V11.2958H123.333V13.4646H124.616V14.9104H123.333V19.0186C123.333 19.3383 123.375 19.5399 123.459 19.6164C123.693 19.726 123.953 19.767 124.209 19.7346H124.412H124.616V21.2569L123.635 21.2916C123.284 21.3441 122.926 21.3269 122.582 21.241C122.238 21.1551 121.914 21.0022 121.63 20.7911C121.378 20.4908 121.254 20.1037 121.287 19.7137V14.9104H120.201Z" fill="white"/>
<path d="M128.19 12.4705H126.087V10.5936H128.19V12.4705ZM126.087 13.395H128.19V21.1664H126.087V13.395Z" fill="white"/>
<path d="M136.381 20.2211C135.564 20.9974 134.476 21.4307 133.344 21.4307C132.212 21.4307 131.124 20.9974 130.306 20.2211C129.634 19.3937 129.279 18.3569 129.304 17.2947C129.292 16.2328 129.659 15.201 130.341 14.3821C131.15 13.5895 132.242 13.1451 133.379 13.1451C134.516 13.1451 135.607 13.5895 136.416 14.3821C137.089 15.2041 137.444 16.2366 137.419 17.2947C137.447 18.3575 137.092 19.3955 136.416 20.2211M134.77 19.095C135.121 18.5615 135.29 17.9306 135.253 17.2947C135.29 16.6587 135.121 16.0278 134.77 15.4943C134.596 15.2943 134.381 15.1339 134.139 15.0239C133.897 14.914 133.634 14.857 133.368 14.857C133.102 14.857 132.839 14.914 132.597 15.0239C132.355 15.1339 132.14 15.2943 131.967 15.4943C131.61 16.0255 131.438 16.6576 131.476 17.2947C131.438 17.9317 131.61 18.5638 131.967 19.095C132.14 19.295 132.355 19.4554 132.597 19.5654C132.839 19.6753 133.102 19.7323 133.368 19.7323C133.634 19.7323 133.897 19.6753 134.139 19.5654C134.381 19.4554 134.596 19.295 134.77 19.095Z" fill="white"/>
<path d="M145.092 13.8399C145.371 14.1073 145.586 14.4336 145.72 14.7946C145.855 15.1556 145.906 15.542 145.87 15.9252V21.1595H143.767V16.4327C143.785 16.1112 143.728 15.79 143.599 15.4943C143.491 15.2907 143.323 15.1242 143.118 15.0163C142.914 14.9085 142.681 14.8643 142.45 14.8895C142.152 14.8693 141.855 14.9441 141.603 15.1029C141.351 15.2617 141.157 15.4962 141.048 15.7723C140.902 16.1487 140.832 16.5506 140.845 16.954V21.1595H138.75V13.4089H140.754V14.5419C140.956 14.2169 141.209 13.926 141.504 13.68C141.975 13.3521 142.541 13.1861 143.116 13.2073C143.836 13.1785 144.543 13.4025 145.113 13.8399" fill="white"/>
<path d="M150.775 16.4396C151.057 16.415 151.334 16.3567 151.602 16.2658C151.73 16.2288 151.842 16.1521 151.923 16.047C152.004 15.9419 152.048 15.814 152.05 15.6819C152.061 15.5521 152.034 15.4219 151.973 15.3064C151.912 15.1909 151.82 15.0946 151.707 15.0285C151.394 14.8853 151.049 14.8209 150.705 14.8408C150.514 14.821 150.322 14.8424 150.14 14.9036C149.959 14.9648 149.793 15.0643 149.654 15.1954C149.497 15.3983 149.396 15.6376 149.359 15.8905H147.362C147.379 15.2862 147.582 14.7015 147.944 14.2152C148.498 13.5201 149.437 13.1865 150.747 13.1865C151.547 13.1736 152.339 13.3474 153.059 13.6939C153.4 13.8773 153.679 14.1567 153.86 14.497C154.04 14.8372 154.116 15.2229 154.076 15.6055V19.1715C154.076 19.4217 154.076 19.7206 154.076 20.0682C154.07 20.2558 154.111 20.4419 154.195 20.6104C154.275 20.714 154.382 20.7954 154.503 20.8467V21.1456H152.254C152.196 21.0039 152.152 20.8573 152.12 20.7077C152.12 20.5687 152.078 20.4088 152.064 20.235C151.775 20.5411 151.442 20.8034 151.076 21.0135C150.611 21.2674 150.087 21.3967 149.556 21.3889C148.905 21.4132 148.269 21.1978 147.769 20.7841C147.528 20.5723 147.34 20.3086 147.219 20.0134C147.097 19.7182 147.046 19.3992 147.068 19.0811C147.038 18.6633 147.129 18.2457 147.328 17.8766C147.528 17.5076 147.829 17.2021 148.196 16.9957C148.771 16.7212 149.39 16.5517 150.025 16.4952L150.775 16.4396ZM152.064 17.378C151.935 17.4554 151.799 17.5206 151.658 17.5727C151.478 17.6358 151.293 17.6823 151.104 17.7117L150.635 17.7951C150.304 17.8368 149.983 17.9307 149.682 18.0732C149.528 18.1575 149.401 18.2831 149.316 18.4354C149.23 18.5878 149.189 18.761 149.198 18.9351C149.185 19.0744 149.205 19.2148 149.256 19.3451C149.307 19.4755 149.388 19.5922 149.493 19.6858C149.693 19.8406 149.94 19.9238 150.193 19.9222C150.64 19.9226 151.075 19.7867 151.441 19.5329C151.646 19.3663 151.807 19.1527 151.911 18.9106C152.015 18.6684 152.058 18.4049 152.036 18.1427L152.064 17.378Z" fill="white"/>
<path d="M157.867 10.6562H155.799V21.1665H157.867V10.6562Z" fill="white"/>
<path d="M104.518 22.9877H102.297V33.4979H104.518V22.9877Z" fill="white"/>
<path d="M112.668 26.1713C112.948 26.4381 113.163 26.7643 113.298 27.1255C113.433 27.4867 113.483 27.8734 113.446 28.2567V33.4909H111.343V28.7641C111.36 28.4404 111.302 28.1173 111.175 27.8187C111.064 27.6177 110.896 27.4537 110.692 27.3474C110.487 27.241 110.256 27.197 110.026 27.2209C109.723 27.1925 109.419 27.2626 109.16 27.4206C108.901 27.5786 108.701 27.8159 108.589 28.0968C108.443 28.4758 108.374 28.8798 108.386 29.2854V33.4562H106.284V25.7195H108.288V26.8525C108.489 26.5263 108.742 26.2351 109.038 25.9906C109.509 25.6627 110.075 25.4967 110.65 25.5179C111.37 25.4867 112.078 25.7109 112.647 26.1504" fill="white"/>
<path d="M118.491 22.8904H118.926V24.5448C118.813 24.5448 118.617 24.5448 118.344 24.5448C118.242 24.5316 118.138 24.541 118.04 24.5723C117.942 24.6035 117.852 24.6558 117.776 24.7255C117.68 24.8441 117.626 24.9906 117.622 25.1426V25.796H118.982V27.2279H117.622V33.484H115.569V27.2279H114.406V25.796H115.541V25.2955C115.477 24.6912 115.628 24.0837 115.968 23.5785C116.27 23.1128 116.991 22.8834 118.134 22.8834H118.491" fill="white"/>
<path d="M126.613 32.5456C125.798 33.3267 124.709 33.7632 123.575 33.7632C122.442 33.7632 121.353 33.3267 120.537 32.5456C119.887 31.709 119.535 30.6824 119.535 29.6261C119.535 28.5698 119.887 27.5432 120.537 26.7066C121.348 25.9173 122.439 25.4752 123.575 25.4752C124.711 25.4752 125.802 25.9173 126.613 26.7066C127.263 27.5432 127.616 28.5698 127.616 29.6261C127.616 30.6824 127.263 31.709 126.613 32.5456ZM124.959 31.4195C125.317 30.8887 125.489 30.2563 125.45 29.6191C125.489 28.9841 125.317 28.3539 124.959 27.8257C124.796 27.6141 124.583 27.4456 124.338 27.3353C124.094 27.2249 123.826 27.1761 123.558 27.1932C123.29 27.1779 123.022 27.2276 122.778 27.3378C122.534 27.448 122.32 27.6154 122.156 27.8257C121.796 28.3526 121.623 28.9838 121.666 29.6191C121.623 30.2566 121.796 30.89 122.156 31.4195C122.32 31.6306 122.533 31.7991 122.777 31.9105C123.022 32.0219 123.289 32.0728 123.558 32.059C123.826 32.0746 124.094 32.0245 124.339 31.913C124.583 31.8014 124.796 31.632 124.959 31.4195Z" fill="white"/>
<path d="M133.34 25.5388C133.398 25.5452 133.457 25.5452 133.515 25.5388V27.6242H133.172H132.927C132.599 27.5851 132.266 27.6396 131.969 27.7812C131.671 27.9227 131.42 28.1456 131.245 28.4236C131.062 28.8636 130.981 29.3386 131.007 29.8138V33.5327H128.904V25.7196H130.88V27.1098C131.103 26.7001 131.395 26.331 131.742 26.0185C132.171 25.6851 132.705 25.515 133.249 25.5388H133.347" fill="white"/>
<path d="M144.447 25.7543C144.808 25.9071 145.126 26.1458 145.372 26.4494C145.601 26.742 145.755 27.0855 145.821 27.4504C145.876 27.8301 145.9 28.2138 145.891 28.5974V33.4632H143.788V28.5487C143.792 28.3091 143.741 28.0717 143.641 27.8536C143.546 27.6736 143.397 27.5263 143.216 27.4309C143.035 27.3354 142.829 27.2962 142.625 27.3183C142.38 27.2995 142.134 27.3561 141.922 27.4805C141.711 27.6048 141.542 27.7909 141.441 28.0134C141.324 28.2953 141.269 28.5986 141.28 28.9032V33.5327H139.177V28.8684C139.198 28.5266 139.15 28.1841 139.037 27.8605C138.946 27.6735 138.799 27.5191 138.616 27.4183C138.433 27.3175 138.222 27.2753 138.014 27.2975C137.782 27.2689 137.547 27.3067 137.336 27.4065C137.125 27.5063 136.947 27.6638 136.823 27.8605C136.694 28.1634 136.636 28.4915 136.655 28.8198V33.498H134.552V25.7195H136.564V26.8526C136.745 26.527 136.982 26.2353 137.264 25.9906C137.714 25.7036 138.234 25.5453 138.768 25.533C139.302 25.5208 139.83 25.6551 140.292 25.9211C140.602 26.1694 140.844 26.4925 140.992 26.8595C141.229 26.438 141.578 26.0893 142.002 25.8516C142.438 25.6406 142.917 25.5312 143.403 25.5319C143.756 25.5341 144.106 25.6025 144.433 25.7334" fill="white"/>
<path d="M150.775 28.7711C151.057 28.7448 151.335 28.6841 151.602 28.5903C151.73 28.5556 151.843 28.4805 151.924 28.3764C152.004 28.2723 152.049 28.1448 152.05 28.0134C152.062 27.8824 152.036 27.7508 151.975 27.6339C151.914 27.517 151.821 27.4196 151.707 27.353C151.392 27.2166 151.049 27.1547 150.705 27.1723C150.514 27.1524 150.322 27.1738 150.14 27.235C149.959 27.2962 149.793 27.3958 149.654 27.5268C149.497 27.7297 149.396 27.9691 149.359 28.2219H147.362C147.379 27.6176 147.582 27.0329 147.944 26.5467C148.498 25.8516 149.437 25.5179 150.747 25.5179C151.548 25.5016 152.34 25.6756 153.059 26.0253C153.401 26.208 153.68 26.4873 153.861 26.8277C154.042 27.1681 154.116 27.5542 154.076 27.9369V31.5029C154.076 31.7462 154.076 32.0451 154.076 32.3996C154.072 32.5871 154.113 32.7728 154.195 32.9418C154.275 33.0455 154.382 33.1269 154.503 33.1781V33.477H152.254C152.196 33.333 152.151 33.1841 152.12 33.0322C152.12 32.8931 152.078 32.7402 152.064 32.5664C151.788 32.8752 151.47 33.1442 151.118 33.3658C150.655 33.6251 150.13 33.7571 149.598 33.7481C148.947 33.7724 148.311 33.557 147.811 33.1434C147.572 32.9289 147.385 32.6638 147.264 32.3677C147.142 32.0717 147.09 31.7523 147.11 31.4334C147.08 31.0156 147.171 30.598 147.37 30.2289C147.57 29.8599 147.871 29.5544 148.238 29.348C148.811 29.0703 149.432 28.9006 150.067 28.8475L150.775 28.7711ZM152.064 29.7164C151.937 29.7966 151.8 29.8619 151.658 29.9111C151.477 29.9737 151.292 30.0225 151.104 30.057L150.635 30.1405C150.304 30.1821 149.983 30.276 149.682 30.4185C149.527 30.5022 149.4 30.6276 149.314 30.7802C149.229 30.9327 149.189 31.1062 149.198 31.2805C149.185 31.4197 149.205 31.5601 149.256 31.6905C149.307 31.8208 149.388 31.9375 149.493 32.0312C149.695 32.1811 149.941 32.2616 150.193 32.2606C150.639 32.2635 151.074 32.13 151.441 31.8783C151.646 31.7116 151.807 31.498 151.911 31.2559C152.015 31.0138 152.058 30.7503 152.036 30.488L152.064 29.7164Z" fill="white"/>
<path d="M154.945 27.2418V25.796H156.052V23.6342H158.098V25.8029H159.38V27.2488H158.098V31.35C158.098 31.6698 158.098 31.8644 158.217 31.9478C158.453 32.0562 158.715 32.0971 158.974 32.066H159.38V33.5814L158.399 33.6161C158.049 33.6696 157.691 33.6535 157.347 33.5688C157.003 33.484 156.68 33.3324 156.395 33.1226C156.143 32.8218 156.02 32.435 156.052 32.0451V27.2418H154.945Z" fill="white"/>
<path d="M162.94 24.7949H160.838V22.939H162.94V24.7949ZM160.838 25.7264H162.94V33.4979H160.838V25.7264Z" fill="white"/>
<path d="M169.268 28.5001C169.238 28.2167 169.134 27.946 168.967 27.7146C168.84 27.5536 168.675 27.4261 168.487 27.3437C168.299 27.2612 168.093 27.2262 167.888 27.2419C167.566 27.2226 167.248 27.3137 166.986 27.4998C166.725 27.6859 166.536 27.9556 166.451 28.2637C166.301 28.7261 166.233 29.2103 166.248 29.6957C166.231 30.1674 166.3 30.6383 166.451 31.0859C166.543 31.3788 166.731 31.6332 166.985 31.8092C167.238 31.9853 167.543 32.0731 167.852 32.0591C168.043 32.0779 168.235 32.0525 168.414 31.985C168.593 31.9174 168.753 31.8095 168.883 31.6698C169.1 31.3808 169.229 31.0356 169.254 30.6758H171.356C171.295 31.3137 171.052 31.9212 170.655 32.4275C170.325 32.8711 169.887 33.2256 169.383 33.4587C168.879 33.6918 168.324 33.7961 167.768 33.7621C167.246 33.8046 166.721 33.7262 166.235 33.5332C165.749 33.3402 165.314 33.0378 164.965 32.6499C164.335 31.8221 164.015 30.8018 164.061 29.7652C163.991 28.6404 164.345 27.53 165.056 26.651C165.404 26.2776 165.831 25.9844 166.305 25.7923C166.78 25.6001 167.291 25.5136 167.803 25.5388C168.664 25.5001 169.515 25.7312 170.235 26.1992C170.586 26.4749 170.872 26.824 171.072 27.2217C171.272 27.6193 171.381 28.0558 171.391 28.5001H169.268Z" fill="white"/>
<path d="M174.257 31.0163C174.269 31.2971 174.369 31.5671 174.545 31.7879C174.941 32.0994 175.444 32.2441 175.946 32.1911C176.278 32.2067 176.608 32.1473 176.913 32.0173C177.016 31.975 177.104 31.9052 177.169 31.8156C177.233 31.7261 177.272 31.6204 177.279 31.5106C177.286 31.4007 177.262 31.291 177.21 31.1939C177.158 31.0967 177.079 31.016 176.983 30.9607C176.287 30.683 175.564 30.4757 174.825 30.3421C174.136 30.223 173.486 29.9443 172.926 29.5288C172.737 29.351 172.59 29.1345 172.494 28.8944C172.399 28.6542 172.357 28.3963 172.372 28.1385C172.371 27.7866 172.448 27.4387 172.597 27.1193C172.746 26.7999 172.963 26.5167 173.234 26.2895C173.916 25.7398 174.782 25.4644 175.659 25.5179C176.503 25.4834 177.34 25.6832 178.077 26.0949C178.403 26.3212 178.671 26.6214 178.857 26.9708C179.044 27.3201 179.144 27.7085 179.149 28.1038H177.081C177.065 27.881 176.988 27.667 176.857 27.4851C176.707 27.3322 176.523 27.2157 176.32 27.1445C176.117 27.0734 175.901 27.0496 175.687 27.075C175.354 27.0452 175.019 27.1154 174.727 27.2766C174.642 27.328 174.572 27.3993 174.522 27.4842C174.472 27.569 174.443 27.6649 174.44 27.7632C174.434 27.8686 174.46 27.9733 174.515 28.0638C174.57 28.1542 174.651 28.2263 174.748 28.2706C175.449 28.5206 176.172 28.709 176.906 28.8336C177.588 28.9573 178.225 29.2543 178.756 29.6956C178.955 29.8831 179.112 30.1099 179.217 30.3614C179.322 30.6128 179.373 30.8833 179.366 31.1554C179.375 31.5159 179.301 31.8738 179.149 32.2015C178.997 32.5292 178.772 32.8181 178.49 33.0461C177.661 33.5312 176.714 33.7835 175.751 33.7762C174.788 33.7688 173.846 33.5021 173.024 33.0044C172.737 32.762 172.508 32.4589 172.354 32.1173C172.2 31.7757 172.125 31.4043 172.134 31.0302L174.257 31.0163Z" fill="white"/>
<path d="M103.502 36.8415C103.93 36.4128 104.443 36.0761 105.009 35.8525C105.574 35.6288 106.18 35.523 106.788 35.5416C108.568 35.5416 109.869 36.1232 110.692 37.2864C111.107 37.8613 111.35 38.5408 111.392 39.2466H109.157C109.061 38.8315 108.875 38.4423 108.61 38.1066C108.386 37.8671 108.11 37.6804 107.803 37.5601C107.496 37.4399 107.167 37.3891 106.838 37.4115C106.467 37.3998 106.1 37.4825 105.771 37.6516C105.443 37.8208 105.163 38.0708 104.959 38.3777C104.447 39.1972 104.202 40.1538 104.259 41.1165C104.185 42.0524 104.432 42.9855 104.959 43.7649C105.178 44.0434 105.459 44.2675 105.78 44.4195C106.101 44.5715 106.454 44.6473 106.809 44.6408C107.14 44.6616 107.472 44.6044 107.776 44.474C108.081 44.3435 108.35 44.1434 108.561 43.8901C108.827 43.5233 109.015 43.1072 109.115 42.6666H111.42C111.265 43.7331 110.745 44.7144 109.949 45.4471C109.124 46.2052 108.031 46.6099 106.908 46.5732C106.239 46.6062 105.571 46.4932 104.951 46.2422C104.331 45.9912 103.774 45.6082 103.32 45.1204C102.396 43.9914 101.932 42.5609 102.016 41.1096C101.961 40.3356 102.064 39.5585 102.32 38.825C102.575 38.0915 102.977 37.4169 103.502 36.8415Z" fill="white"/>
<path d="M118.05 38.6626C118.606 38.9077 119.08 39.3057 119.416 39.8096C119.746 40.2907 119.962 40.8397 120.047 41.4153C120.11 41.9272 120.131 42.4433 120.11 42.9585H114.357C114.338 43.279 114.404 43.5988 114.548 43.8865C114.691 44.1741 114.908 44.4197 115.177 44.599C115.522 44.8 115.918 44.9011 116.319 44.8909C116.732 44.9105 117.139 44.785 117.468 44.5364C117.644 44.3871 117.789 44.2053 117.895 44.0012H119.998C119.9 44.5339 119.632 45.0213 119.234 45.3914C118.853 45.7877 118.39 46.0982 117.878 46.3021C117.365 46.506 116.814 46.5984 116.263 46.5731C115.245 46.5889 114.254 46.2521 113.46 45.6208C113.032 45.228 112.7 44.7429 112.491 44.203C112.282 43.663 112.201 43.0827 112.254 42.5067C112.216 41.9434 112.292 41.3782 112.48 40.8453C112.668 40.3124 112.963 39.8229 113.348 39.4064C113.717 39.0484 114.156 38.7684 114.638 38.5832C115.12 38.398 115.634 38.3115 116.151 38.329C116.791 38.32 117.426 38.4455 118.015 38.6974M114.924 40.4143C114.616 40.746 114.424 41.1679 114.378 41.6169H117.938C117.936 41.3866 117.887 41.159 117.793 40.9485C117.699 40.7379 117.562 40.5489 117.391 40.3935C117.049 40.1064 116.612 39.9553 116.165 39.9695C115.938 39.9569 115.712 39.9898 115.499 40.0663C115.285 40.1427 115.09 40.2611 114.924 40.4143Z" fill="white"/>
<path d="M127.384 38.9268C127.663 39.1943 127.878 39.5206 128.012 39.8816C128.147 40.2426 128.198 40.629 128.162 41.0122V46.2465H126.059V41.5196C126.077 41.1982 126.019 40.877 125.891 40.5812C125.784 40.3771 125.616 40.21 125.411 40.102C125.206 39.9941 124.973 39.9503 124.742 39.9765C124.438 39.9485 124.134 40.0196 123.874 40.179C123.615 40.3383 123.415 40.5771 123.305 40.8593C123.161 41.2362 123.094 41.638 123.109 42.041V46.2117H121.007V38.5167H123.011V39.622C123.213 39.297 123.466 39.006 123.761 38.76C124.232 38.4331 124.798 38.2672 125.373 38.2873C126.093 38.2573 126.8 38.4814 127.37 38.9199" fill="white"/>
<path d="M129.122 40.0182V38.5723H130.229V36.4036H132.275V38.5723H133.557V40.0182H132.275V44.1264C132.248 44.3332 132.29 44.543 132.394 44.7242C132.63 44.8325 132.892 44.8734 133.151 44.8423H133.557V46.3577H132.576C132.227 46.4122 131.87 46.3966 131.527 46.3118C131.184 46.227 130.862 46.0748 130.579 45.8642C130.452 45.7166 130.355 45.5453 130.295 45.3603C130.235 45.1754 130.212 44.9804 130.229 44.7867V40.0182H129.122Z" fill="white"/>
<path d="M139.128 38.322H139.311V40.4074C139.177 40.4074 139.058 40.4074 138.96 40.4074H138.715C138.387 40.3669 138.054 40.4215 137.757 40.5646C137.46 40.7077 137.211 40.9332 137.04 41.2137C136.85 41.6516 136.765 42.1279 136.795 42.604V46.3159H134.693V38.5028H136.669V39.893C136.886 39.4952 137.167 39.1359 137.503 38.8295C137.931 38.4961 138.465 38.3259 139.009 38.3498H139.107" fill="white"/>
<path d="M145.526 38.6627C146.094 38.9042 146.581 39.3022 146.928 39.8097C147.258 40.2908 147.473 40.8398 147.559 41.4154C147.622 41.9272 147.643 42.4433 147.622 42.9586H141.833C141.815 43.2791 141.88 43.5989 142.024 43.8866C142.168 44.1742 142.385 44.4198 142.653 44.5991C142.998 44.8025 143.394 44.9038 143.795 44.891C144.208 44.9094 144.615 44.784 144.945 44.5365C145.121 44.3871 145.266 44.2054 145.372 44.0013H147.474C147.377 44.534 147.109 45.0214 146.711 45.3915C146.329 45.7878 145.867 46.0983 145.354 46.3022C144.842 46.506 144.291 46.5985 143.739 46.5732C142.721 46.5914 141.729 46.2543 140.936 45.6209C140.506 45.2298 140.172 44.7451 139.962 44.2049C139.752 43.6646 139.67 43.0834 139.724 42.5068C139.685 41.9354 139.765 41.3621 139.959 40.8228C140.153 40.2834 140.457 39.7895 140.852 39.3718C141.222 39.0137 141.661 38.7337 142.143 38.5485C142.624 38.3633 143.139 38.2769 143.655 38.2943C144.296 38.2859 144.931 38.4115 145.519 38.6627M142.422 40.4144C142.117 40.7485 141.926 41.1692 141.875 41.617H145.435C145.433 41.3862 145.382 41.1585 145.287 40.9479C145.192 40.7374 145.054 40.5487 144.882 40.3936C144.541 40.1053 144.103 39.954 143.655 39.9696C143.43 39.9575 143.205 39.9907 142.993 40.0672C142.781 40.1436 142.587 40.2617 142.422 40.4144Z" fill="white"/>
</svg>
